<?xml version="1.0" encoding="UTF-8" standalone="no"?>
<svg
   xmlns:dc="http://purl.org/dc/elements/1.1/"
   xmlns:cc="http://creativecommons.org/ns#"
   xmlns:rdf="http://www.w3.org/1999/02/22-rdf-syntax-ns#"
   xmlns:svg="http://www.w3.org/2000/svg"
   xmlns="http://www.w3.org/2000/svg"
   xmlns:sodipodi="http://sodipodi.sourceforge.net/DTD/sodipodi-0.dtd"
   xmlns:inkscape="http://www.inkscape.org/namespaces/inkscape"
   width="356mm"
   height="403mm"
   viewBox="0 0 356 403"
   version="1.1"
   preserveAspectRatio="xMidYMid meet"
   id="svg146"
   sodipodi:docname="box.svg"
   inkscape:version="1.0.2 (394de47547, 2021-03-26)">
  <metadata
     id="metadata152">
    <rdf:RDF>
      <cc:Work
         rdf:about="">
        <dc:format>image/svg+xml</dc:format>
        <dc:type
           rdf:resource="http://purl.org/dc/dcmitype/StillImage" />
      </cc:Work>
    </rdf:RDF>
  </metadata>
  <defs
     id="defs150" />
  <sodipodi:namedview
     pagecolor="#ffffff"
     bordercolor="#666666"
     borderopacity="1"
     objecttolerance="10"
     gridtolerance="10"
     guidetolerance="10"
     inkscape:pageopacity="0"
     inkscape:pageshadow="2"
     inkscape:window-width="1853"
     inkscape:window-height="1025"
     id="namedview148"
     showgrid="false"
     inkscape:zoom="0.55802392"
     inkscape:cx="672.75591"
     inkscape:cy="694.87715"
     inkscape:window-x="67"
     inkscape:window-y="27"
     inkscape:window-maximized="1"
     inkscape:current-layer="svg146" />
  <g
     id="svgGroup"
     stroke-linecap="round"
     fill-rule="evenodd"
     font-size="12px"
     stroke="#000"
     stroke-width="0.25mm"
     fill="none"
     style="fill:none;stroke:#000000;stroke-width:0.25mm"
     transform="translate(0.51703153,-0.32074297)">
    <path
       d="m 0,203 v 39.025 h 6 v 24.39 H 0 v 24.39 h 6 v 24.39 H 0 v 24.39 h 6 v 24.39 H 0 V 388.365 403 h 38.415 v -6 h 24.39 v 6 h 24.39 v -6 h 24.39 v 6 H 135.975 150 v -39.025 h -6 v -24.39 h 6 v -24.39 h -6 v -24.39 h 6 v -24.39 h -6 v -24.39 h 6 V 217.635 203 h -38.415 v 6 h -24.39 v -6 h -24.39 v 6 h -24.39 v -6 h -24.39 z"
       id="front_outsideCutPath"
       stroke="#FF0000"
       stroke-width="0.1"
       style="stroke:#ff0000;stroke-width:0.1"
       vector-effect="non-scaling-stroke" />
    <path
       d="m 96.863,314.33 h -2.432 v -10.385 a 6.874,6.874 0 0 0 -0.079,-1.078 q -0.09,-0.568 -0.284,-1.02 a 2.893,2.893 0 0 0 -0.53,-0.832 2.741,2.741 0 0 0 -1.125,-0.718 q -0.706,-0.249 -1.673,-0.249 -1.66,0 -2.735,0.591 a 3.428,3.428 0 0 0 -0.957,0.771 3.975,3.975 0 0 0 -0.691,1.208 q -0.416,1.109 -0.472,2.761 a 15.578,15.578 0 0 0 -0.009,0.528 v 8.423 h -2.431 v -16.054 h 1.977 l 0.396,2.197 h 0.117 a 4.924,4.924 0 0 1 1.929,-1.755 5.921,5.921 0 0 1 0.166,-0.084 q 1.347,-0.651 3.003,-0.651 a 9.601,9.601 0 0 1 1.634,0.129 q 0.883,0.153 1.581,0.486 a 4.37,4.37 0 0 1 1.15,0.784 q 1.114,1.064 1.381,3.099 a 10.612,10.612 0 0 1 0.084,1.376 z M 50.149,298.276 v 1.889 H 46.062 V 314.33 H 43.63 v -14.165 h -2.871 v -1.098 l 2.871,-0.879 v -0.894 a 9.855,9.855 0 0 1 0.23,-2.233 q 0.712,-3.046 3.624,-3.574 a 7.391,7.391 0 0 1 1.317,-0.111 7.83,7.83 0 0 1 1.108,0.085 q 0.539,0.077 1.139,0.225 a 15.741,15.741 0 0 1 0.742,0.203 l -0.63,1.948 q -0.999,-0.322 -1.791,-0.416 a 5.23,5.23 0 0 0 -0.612,-0.038 3.279,3.279 0 0 0 -0.79,0.089 2.106,2.106 0 0 0 -1.246,0.827 2.814,2.814 0 0 0 -0.372,0.75 q -0.247,0.732 -0.281,1.821 a 11.48,11.48 0 0 0 -0.006,0.366 v 1.04 z m 59.092,14.047 v 1.861 a 2.392,2.392 0 0 1 -0.284,0.112 q -0.352,0.117 -0.881,0.203 -0.718,0.116 -1.302,0.124 a 6.232,6.232 0 0 1 -0.082,0 6.351,6.351 0 0 1 -1.872,-0.252 q -2.057,-0.635 -2.595,-2.869 a 7.643,7.643 0 0 1 -0.191,-1.786 v -9.551 h -2.3 v -1.172 l 2.3,-1.01 1.025,-3.428 h 1.406 v 3.721 h 4.659 v 1.889 h -4.659 v 9.448 q 0,1.019 0.34,1.706 a 2.359,2.359 0 0 0 0.349,0.521 2.259,2.259 0 0 0 1.388,0.739 3.25,3.25 0 0 0 0.501,0.037 7.986,7.986 0 0 0 1.17,-0.083 7.359,7.359 0 0 0 0.076,-0.012 13.154,13.154 0 0 0 0.351,-0.06 q 0.359,-0.067 0.601,-0.138 z m -46.919,-14.165 -0.337,2.256 a 10.717,10.717 0 0 0 -0.771,-0.142 q -0.535,-0.077 -0.987,-0.077 a 4.213,4.213 0 0 0 -3.113,1.344 5.764,5.764 0 0 0 -0.219,0.238 5.553,5.553 0 0 0 -1.34,3.117 7.381,7.381 0 0 0 -0.045,0.823 v 8.613 h -2.431 v -16.054 h 2.006 l 0.279,2.973 h 0.117 q 0.894,-1.567 2.153,-2.417 a 4.847,4.847 0 0 1 2.769,-0.849 11.163,11.163 0 0 1 0.999,0.042 8.148,8.148 0 0 1 0.92,0.133 z m 16.637,10.574 a 12.56,12.56 0 0 0 0.223,-2.444 14.272,14.272 0 0 0 -0.005,-0.386 q -0.036,-1.337 -0.326,-2.471 a 7.572,7.572 0 0 0 -1.654,-3.207 6.366,6.366 0 0 0 -2.955,-1.906 8.171,8.171 0 0 0 -2.399,-0.335 9.444,9.444 0 0 0 -1.696,0.145 6.432,6.432 0 0 0 -3.753,2.045 q -1.963,2.189 -1.963,6.115 a 12.165,12.165 0 0 0 0.153,1.971 8.995,8.995 0 0 0 0.755,2.453 7.992,7.992 0 0 0 0.177,0.347 6.583,6.583 0 0 0 2.401,2.553 6.771,6.771 0 0 0 1.555,0.692 7.809,7.809 0 0 0 2.269,0.319 9.442,9.442 0 0 0 1.649,-0.138 6.483,6.483 0 0 0 3.815,-2.066 6.783,6.783 0 0 0 0.807,-1.11 q 0.659,-1.127 0.947,-2.577 z m -12.008,-2.444 a 12.314,12.314 0 0 0 0.117,1.759 q 0.129,0.893 0.401,1.617 a 5.101,5.101 0 0 0 0.712,1.312 3.985,3.985 0 0 0 2.596,1.528 6.039,6.039 0 0 0 1.022,0.083 5.648,5.648 0 0 0 1.49,-0.185 3.931,3.931 0 0 0 2.136,-1.419 5.22,5.22 0 0 0 0.813,-1.583 q 0.239,-0.732 0.343,-1.625 a 12.809,12.809 0 0 0 0.082,-1.487 12.133,12.133 0 0 0 -0.115,-1.729 q -0.263,-1.817 -1.123,-2.922 a 4,4 0 0 0 -2.487,-1.483 6.133,6.133 0 0 0 -1.168,-0.106 5.787,5.787 0 0 0 -1.441,0.169 3.873,3.873 0 0 0 -2.162,1.398 5.028,5.028 0 0 0 -0.782,1.511 q -0.434,1.306 -0.434,3.162 z"
       id="front_labelLayer"
       stroke="#777777"
       fill="#777777"
       style="fill:#777777;stroke:#777777"
       vector-effect="non-scaling-stroke" />
    <path
       d="m 159,203 v 39.025 h -6 v 24.39 h 6 v 24.39 h -6 v 24.39 h 6 v 24.39 h -6 v 24.39 h 6 V 388.365 403 h 6.805 v -6 h 24.39 v 6 H 197 v -39.025 h 6 v -24.39 h -6 v -24.39 h 6 v -24.39 h -6 v -24.39 h 6 v -24.39 h -6 V 217.635 203 h -6.805 v 6 h -24.39 v -6 z"
       id="left_outsideCutPath"
       stroke="#FF0000"
       stroke-width="0.1"
       style="stroke:#ff0000;stroke-width:0.1"
       vector-effect="non-scaling-stroke" />
    <path
       d="m 181.557,301.425 v 0.63 h -1.362 v 4.722 h -0.811 v -4.722 h -0.957 v -0.366 l 0.957,-0.293 v -0.298 a 3.285,3.285 0 0 1 0.077,-0.744 q 0.287,-1.229 1.647,-1.229 a 2.61,2.61 0 0 1 0.369,0.029 q 0.18,0.025 0.38,0.075 a 5.247,5.247 0 0 1 0.247,0.067 l -0.21,0.65 q -0.333,-0.108 -0.597,-0.139 a 1.743,1.743 0 0 0 -0.204,-0.013 1.093,1.093 0 0 0 -0.263,0.03 0.702,0.702 0 0 0 -0.415,0.276 q -0.22,0.305 -0.22,0.979 v 0.346 z m -3.794,2.31 v 0.512 h -3.686 q 0.016,0.644 0.232,1.076 a 1.522,1.522 0 0 0 0.244,0.355 1.473,1.473 0 0 0 0.773,0.436 2.232,2.232 0 0 0 0.499,0.052 4.281,4.281 0 0 0 1.603,-0.317 4.905,4.905 0 0 0 0.106,-0.044 v 0.723 a 4.866,4.866 0 0 1 -0.444,0.167 3.721,3.721 0 0 1 -0.369,0.099 q -0.384,0.08 -0.926,0.08 a 3.15,3.15 0 0 1 -0.788,-0.093 2.23,2.23 0 0 1 -1.084,-0.629 q -0.647,-0.681 -0.684,-1.861 a 4.63,4.63 0 0 1 -0.002,-0.146 4.256,4.256 0 0 1 0.079,-0.844 q 0.103,-0.513 0.344,-0.912 a 2.4,2.4 0 0 1 0.214,-0.3 2.077,2.077 0 0 1 1.514,-0.755 2.865,2.865 0 0 1 0.197,-0.006 2.469,2.469 0 0 1 0.696,0.093 1.879,1.879 0 0 1 0.896,0.568 2.266,2.266 0 0 1 0.514,1.036 3.299,3.299 0 0 1 0.072,0.71 z m 7.232,2.373 v 0.62 a 0.797,0.797 0 0 1 -0.095,0.037 q -0.101,0.034 -0.245,0.06 a 3.033,3.033 0 0 1 -0.049,0.008 q -0.256,0.041 -0.461,0.041 a 2.117,2.117 0 0 1 -0.624,-0.084 q -0.929,-0.286 -0.929,-1.551 v -3.184 h -0.766 v -0.391 l 0.766,-0.336 0.342,-1.143 h 0.469 v 1.24 h 1.553 v 0.63 h -1.553 v 3.149 a 1.632,1.632 0 0 0 0.023,0.287 q 0.028,0.157 0.09,0.282 a 0.786,0.786 0 0 0 0.116,0.174 q 0.23,0.258 0.63,0.258 a 2.662,2.662 0 0 0 0.39,-0.027 2.453,2.453 0 0 0 0.025,-0.004 q 0.2,-0.032 0.318,-0.066 z m -13.179,-6.929 v 7.598 h -0.811 v -7.598 z m 2.28,4.409 h 2.798 q 0,-0.518 -0.156,-0.873 a 1.254,1.254 0 0 0 -0.186,-0.301 1.11,1.11 0 0 0 -0.668,-0.381 1.666,1.666 0 0 0 -0.308,-0.027 q -0.645,0 -1.028,0.42 a 1.601,1.601 0 0 0 -0.319,0.537 q -0.101,0.277 -0.133,0.625 z"
       id="left_labelLayer"
       stroke="#777777"
       fill="#777777"
       style="fill:#777777;stroke:#777777"
       vector-effect="non-scaling-stroke" />
    <path
       d="m 212,359 v 6.805 h -6 v 24.39 h 6 V 397 h 32.415 v 6 h 24.39 v -6 h 24.39 v 6 h 24.39 v -6 h 24.39 8.025 v -6.805 h 6 v -24.39 h -6 V 359 h -32.415 v -6 h -24.39 v 6 h -24.39 v -6 h -24.39 v 6 h -24.39 z"
       id="top_outsideCutPath"
       stroke="#FF0000"
       stroke-width="0.1"
       style="stroke:#ff0000;stroke-width:0.1"
       vector-effect="non-scaling-stroke" />
    <path
       d="m 284.594,379.406 h -0.059 a 7.671,7.671 0 0 1 0.05,0.567 6.428,6.428 0 0 1 0.009,0.322 v 2.202 h -0.811 v -7.754 h 0.659 l 0.113,0.733 h 0.039 a 2.182,2.182 0 0 1 0.315,-0.359 1.687,1.687 0 0 1 0.412,-0.276 2.03,2.03 0 0 1 0.582,-0.17 2.627,2.627 0 0 1 0.37,-0.025 2.485,2.485 0 0 1 0.702,0.093 1.836,1.836 0 0 1 0.941,0.634 q 0.579,0.728 0.579,2.041 a 4.752,4.752 0 0 1 -0.063,0.8 q -0.073,0.426 -0.23,0.768 a 2.278,2.278 0 0 1 -0.295,0.48 1.919,1.919 0 0 1 -1.364,0.718 2.749,2.749 0 0 1 -0.27,0.012 q -0.522,0 -0.954,-0.192 a 1.795,1.795 0 0 1 -0.725,-0.594 z m -7.92,0.02 v 0.62 a 0.797,0.797 0 0 1 -0.095,0.037 q -0.101,0.034 -0.245,0.06 a 3.033,3.033 0 0 1 -0.048,0.008 q -0.257,0.041 -0.462,0.041 a 2.117,2.117 0 0 1 -0.624,-0.084 q -0.929,-0.286 -0.929,-1.551 v -3.184 h -0.766 v -0.391 l 0.766,-0.336 0.342,-1.143 h 0.469 v 1.24 h 1.553 v 0.63 h -1.553 v 3.149 a 1.632,1.632 0 0 0 0.024,0.287 q 0.028,0.157 0.089,0.282 a 0.786,0.786 0 0 0 0.116,0.174 q 0.23,0.258 0.63,0.258 a 2.662,2.662 0 0 0 0.39,-0.027 2.453,2.453 0 0 0 0.025,-0.004 q 0.201,-0.032 0.318,-0.066 z m 5.614,-1.197 a 4.187,4.187 0 0 0 0.074,-0.815 q 0,-0.52 -0.11,-0.953 a 2.524,2.524 0 0 0 -0.551,-1.068 2.122,2.122 0 0 0 -0.985,-0.636 2.724,2.724 0 0 0 -0.8,-0.111 3.148,3.148 0 0 0 -0.565,0.048 2.144,2.144 0 0 0 -1.251,0.681 2.239,2.239 0 0 0 -0.275,0.382 q -0.38,0.661 -0.38,1.657 a 4.055,4.055 0 0 0 0.051,0.657 2.998,2.998 0 0 0 0.252,0.818 2.664,2.664 0 0 0 0.059,0.115 2.194,2.194 0 0 0 0.8,0.851 q 0.557,0.337 1.275,0.337 a 3.147,3.147 0 0 0 0.549,-0.046 2.161,2.161 0 0 0 1.272,-0.688 2.261,2.261 0 0 0 0.269,-0.37 q 0.22,-0.376 0.316,-0.859 z m -4.003,-0.815 q 0,1.025 0.41,1.563 a 1.328,1.328 0 0 0 0.865,0.509 2.013,2.013 0 0 0 0.341,0.028 1.883,1.883 0 0 0 0.497,-0.062 1.31,1.31 0 0 0 0.712,-0.473 1.74,1.74 0 0 0 0.271,-0.528 q 0.079,-0.244 0.114,-0.541 a 4.27,4.27 0 0 0 0.027,-0.496 4.044,4.044 0 0 0 -0.038,-0.576 q -0.042,-0.294 -0.131,-0.531 a 1.669,1.669 0 0 0 -0.243,-0.443 1.333,1.333 0 0 0 -0.829,-0.495 2.044,2.044 0 0 0 -0.389,-0.035 1.929,1.929 0 0 0 -0.481,0.056 1.291,1.291 0 0 0 -0.721,0.466 q -0.405,0.523 -0.405,1.558 z m 6.309,-0.181 v 0.181 a 5.359,5.359 0 0 0 0.026,0.554 q 0.059,0.559 0.245,0.899 a 1.222,1.222 0 0 0 0.105,0.161 1.176,1.176 0 0 0 0.596,0.402 q 0.2,0.063 0.443,0.078 a 2.606,2.606 0 0 0 0.167,0.006 1.366,1.366 0 0 0 0.531,-0.1 q 0.328,-0.137 0.555,-0.462 a 1.96,1.96 0 0 0 0.269,-0.572 q 0.078,-0.263 0.107,-0.578 a 4.318,4.318 0 0 0 0.017,-0.398 q 0,-0.657 -0.169,-1.113 a 1.718,1.718 0 0 0 -0.224,-0.422 1.261,1.261 0 0 0 -0.922,-0.526 1.744,1.744 0 0 0 -0.184,-0.009 q -0.82,0 -1.186,0.454 -0.343,0.425 -0.374,1.321 a 5.158,5.158 0 0 0 -0.002,0.124 z"
       id="top_labelLayer"
       stroke="#777777"
       fill="#777777"
       style="fill:#777777;stroke:#777777"
       vector-effect="non-scaling-stroke" />
    <path
       d="m 0,0 v 39.025 h 6 v 24.39 H 0 v 24.39 h 6 v 24.39 H 0 v 24.39 h 6 v 24.39 H 0 V 185.365 200 h 38.415 v -6 h 24.39 v 6 h 24.39 v -6 h 24.39 v 6 H 135.975 150 v -39.025 h -6 v -24.39 h 6 v -24.39 h -6 v -24.39 h 6 v -24.39 h -6 v -24.39 h 6 V 14.635 0 H 111.585 V 6 H 87.195 V 0 H 62.805 V 6 H 38.415 V 0 h -24.39 z"
       id="back_outsideCutPath"
       stroke="#FF0000"
       stroke-width="0.1"
       style="stroke:#ff0000;stroke-width:0.1"
       vector-effect="non-scaling-stroke" />
    <path
       d="m 95.537,103.032 h 0.117 q 0.63,-0.893 1.919,-2.344 l 5.186,-5.493 h 2.886 l -6.504,6.841 6.958,9.214 h -2.945 l -5.669,-7.588 -1.831,1.582 v 6.006 H 93.252 V 88.457 h 2.402 v 12.085 A 16.204,16.204 0 0 1 95.647,101 q -0.021,0.75 -0.106,1.971 a 101.139,101.139 0 0 1 -0.004,0.061 z m -49.204,6.152 h -0.176 l -0.512,2.066 H 43.901 V 88.457 h 2.432 v 5.537 q 0,1.86 -0.117,3.34 h 0.117 q 1.699,-2.403 5.039,-2.403 a 7.432,7.432 0 0 1 2.092,0.28 5.563,5.563 0 0 1 2.823,1.881 q 1.75,2.161 1.75,6.116 a 14.257,14.257 0 0 1 -0.189,2.399 q -0.388,2.272 -1.576,3.746 a 5.757,5.757 0 0 1 -4.091,2.151 8.247,8.247 0 0 1 -0.809,0.039 7.376,7.376 0 0 1 -1.853,-0.226 6.418,6.418 0 0 1 -1.011,-0.353 5.386,5.386 0 0 1 -2.175,-1.78 z m 27.627,2.066 h -1.802 l -0.483,-2.285 h -0.117 a 10.08,10.08 0 0 1 -0.816,0.913 q -0.791,0.777 -1.579,1.13 a 5.608,5.608 0 0 1 -1.159,0.366 q -0.562,0.116 -1.212,0.152 a 10.943,10.943 0 0 1 -0.61,0.017 7.462,7.462 0 0 1 -1.519,-0.145 q -0.928,-0.193 -1.641,-0.643 a 4.187,4.187 0 0 1 -0.583,-0.443 3.997,3.997 0 0 1 -1.206,-2.108 6.118,6.118 0 0 1 -0.149,-1.393 4.208,4.208 0 0 1 2.393,-3.971 q 1.922,-1.022 5.385,-1.126 l 2.725,-0.088 v -0.996 q 0,-1.155 -0.304,-1.941 a 2.714,2.714 0 0 0 -0.509,-0.85 q -0.813,-0.901 -2.6,-0.901 a 7.917,7.917 0 0 0 -1.822,0.227 q -0.836,0.198 -1.746,0.569 a 16.285,16.285 0 0 0 -0.973,0.435 l -0.747,-1.861 q 1.186,-0.644 2.6,-1.01 a 11.261,11.261 0 0 1 2.834,-0.367 10.27,10.27 0 0 1 1.564,0.111 q 0.804,0.125 1.446,0.388 a 4.139,4.139 0 0 1 1.246,0.776 q 1.384,1.274 1.384,4.087 z M 89.678,95.737 88.931,97.803 A 10.817,10.817 0 0 0 87.757,97.412 12.92,12.92 0 0 0 87.173,97.268 Q 86.358,97.086 85.705,97.06 a 5.39,5.39 0 0 0 -0.217,-0.005 q -4.345,0 -4.831,4.924 a 13.436,13.436 0 0 0 -0.061,1.317 11.776,11.776 0 0 0 0.116,1.715 q 0.257,1.738 1.078,2.826 a 3.862,3.862 0 0 0 2.502,1.495 5.883,5.883 0 0 0 1.035,0.087 10.179,10.179 0 0 0 2.808,-0.409 12.568,12.568 0 0 0 1.308,-0.455 v 2.153 q -1.383,0.717 -3.383,0.818 a 13.335,13.335 0 0 1 -0.674,0.017 9.088,9.088 0 0 1 -2.211,-0.254 6.163,6.163 0 0 1 -3.187,-1.892 q -1.651,-1.854 -1.876,-5.035 a 14.703,14.703 0 0 1 -0.036,-1.037 13.417,13.417 0 0 1 0.208,-2.44 q 0.427,-2.307 1.733,-3.786 a 6.296,6.296 0 0 1 3.448,-1.982 9.545,9.545 0 0 1 2.082,-0.215 10.973,10.973 0 0 1 2.314,0.249 12.137,12.137 0 0 1 0.675,0.164 q 0.689,0.191 1.142,0.422 z m -38.657,1.231 q -2.491,0 -3.589,1.428 -0.966,1.255 -1.083,4.019 a 18.735,18.735 0 0 0 -0.016,0.793 16.078,16.078 0 0 0 0.08,1.662 q 0.174,1.676 0.734,2.696 a 3.668,3.668 0 0 0 0.314,0.483 3.528,3.528 0 0 0 1.789,1.208 q 0.599,0.187 1.328,0.234 a 7.819,7.819 0 0 0 0.501,0.016 4.847,4.847 0 0 0 1.377,-0.185 3.497,3.497 0 0 0 1.963,-1.449 q 0.785,-1.166 1.009,-3.062 a 13.933,13.933 0 0 0 0.09,-1.632 14.366,14.366 0 0 0 -0.087,-1.637 q -0.222,-1.931 -1.012,-3.036 a 3.546,3.546 0 0 0 -2.258,-1.429 5.624,5.624 0 0 0 -1.14,-0.109 z m 20.507,7.837 v -1.451 l -2.431,0.103 a 17.854,17.854 0 0 0 -1.427,0.103 q -1.407,0.164 -2.289,0.553 a 3.735,3.735 0 0 0 -0.466,0.245 2.595,2.595 0 0 0 -1.237,1.882 3.841,3.841 0 0 0 -0.045,0.601 3.475,3.475 0 0 0 0.086,0.797 q 0.144,0.613 0.531,1.034 a 2.166,2.166 0 0 0 0.181,0.175 q 0.69,0.595 1.854,0.676 a 5.469,5.469 0 0 0 0.38,0.013 q 2.271,0 3.567,-1.245 1.289,-1.238 1.296,-3.462 a 7.705,7.705 0 0 0 0,-0.024 z"
       id="back_labelLayer"
       stroke="#777777"
       fill="#777777"
       style="fill:#777777;stroke:#777777"
       vector-effect="non-scaling-stroke" />
    <path
       d="m 159,0 v 39.025 h -6 v 24.39 h 6 v 24.39 h -6 v 24.39 h 6 v 24.39 h -6 v 24.39 h 6 V 185.365 200 h 6.805 v -6 h 24.39 v 6 H 197 v -39.025 h 6 v -24.39 h -6 v -24.39 h 6 v -24.39 h -6 v -24.39 h 6 v -24.39 h -6 V 14.635 0 h -6.805 v 6 h -24.39 V 0 Z"
       id="right_outsideCutPath"
       stroke="#FF0000"
       stroke-width="0.1"
       style="stroke:#ff0000;stroke-width:0.1"
       vector-effect="non-scaling-stroke" />
    <path
       d="m 184.218,102.598 h -0.81 v -3.462 a 2.291,2.291 0 0 0 -0.027,-0.36 q -0.062,-0.39 -0.271,-0.617 a 0.914,0.914 0 0 0 -0.375,-0.239 q -0.235,-0.083 -0.558,-0.083 a 2.453,2.453 0 0 0 -0.458,0.04 q -0.255,0.048 -0.45,0.156 a 1.135,1.135 0 0 0 -0.325,0.263 1.349,1.349 0 0 0 -0.229,0.405 q -0.138,0.372 -0.156,0.924 a 5.231,5.231 0 0 0 -0.003,0.175 v 2.798 h -0.81 V 95 h 0.81 v 2.3 a 7.291,7.291 0 0 1 -0.005,0.28 q -0.005,0.131 -0.015,0.244 a 3.171,3.171 0 0 1 -0.019,0.164 h 0.049 a 1.619,1.619 0 0 1 0.567,-0.546 1.978,1.978 0 0 1 0.114,-0.062 2.081,2.081 0 0 1 0.683,-0.202 2.631,2.631 0 0 1 0.325,-0.02 3.288,3.288 0 0 1 0.553,0.043 q 0.294,0.051 0.526,0.159 a 1.461,1.461 0 0 1 0.394,0.264 1.411,1.411 0 0 1 0.348,0.547 q 0.142,0.388 0.142,0.935 z m -7.422,-5.352 h 1.851 v 0.513 l -0.991,0.117 q 0.136,0.171 0.244,0.447 0.107,0.276 0.107,0.622 a 1.858,1.858 0 0 1 -0.085,0.576 1.503,1.503 0 0 1 -0.452,0.679 q -0.484,0.422 -1.292,0.464 a 3.521,3.521 0 0 1 -0.182,0.005 2.605,2.605 0 0 1 -0.302,-0.017 2.2,2.2 0 0 1 -0.148,-0.022 1.442,1.442 0 0 0 -0.232,0.15 q -0.12,0.097 -0.19,0.208 a 0.61,0.61 0 0 0 -0.095,0.33 q 0,0.22 0.18,0.325 0.181,0.105 0.621,0.105 h 0.947 a 3.318,3.318 0 0 1 0.504,0.036 q 0.263,0.04 0.476,0.127 a 1.465,1.465 0 0 1 0.355,0.203 1.186,1.186 0 0 1 0.441,0.756 1.781,1.781 0 0 1 0.026,0.309 q 0,0.888 -0.713,1.355 -0.497,0.325 -1.313,0.423 a 6.424,6.424 0 0 1 -0.767,0.043 4.541,4.541 0 0 1 -0.61,-0.038 q -0.618,-0.084 -1.009,-0.353 a 1.292,1.292 0 0 1 -0.416,-0.452 q -0.134,-0.247 -0.15,-0.56 a 1.711,1.711 0 0 1 -0.003,-0.091 1.239,1.239 0 0 1 0.313,-0.845 q 0.312,-0.356 0.879,-0.483 a 0.841,0.841 0 0 1 -0.327,-0.264 0.999,0.999 0 0 1 -0.018,-0.024 0.751,0.751 0 0 1 -0.138,-0.407 0.931,0.931 0 0 1 -10e-4,-0.047 0.927,0.927 0 0 1 0.047,-0.299 0.821,0.821 0 0 1 0.109,-0.214 1.16,1.16 0 0 1 0.154,-0.173 q 0.081,-0.076 0.186,-0.151 a 2.546,2.546 0 0 1 0.154,-0.101 1.421,1.421 0 0 1 -0.618,-0.494 1.761,1.761 0 0 1 -0.059,-0.087 1.676,1.676 0 0 1 -0.257,-0.808 2.045,2.045 0 0 1 -0.004,-0.13 q 0,-0.878 0.527,-1.355 a 1.721,1.721 0 0 1 0.661,-0.364 q 0.263,-0.08 0.578,-0.103 a 3.58,3.58 0 0 1 0.256,-0.009 3.107,3.107 0 0 1 0.411,0.026 2.366,2.366 0 0 1 0.345,0.072 z m 11.548,4.683 v 0.62 a 0.797,0.797 0 0 1 -0.094,0.037 q -0.101,0.034 -0.246,0.06 a 3.033,3.033 0 0 1 -0.048,0.008 q -0.256,0.041 -0.461,0.041 a 2.117,2.117 0 0 1 -0.624,-0.084 q -0.929,-0.286 -0.929,-1.551 v -3.184 h -0.767 v -0.391 l 0.767,-0.337 0.342,-1.142 h 0.468 v 1.24 h 1.553 v 0.63 h -1.553 v 3.149 a 1.632,1.632 0 0 0 0.024,0.287 q 0.028,0.157 0.09,0.282 a 0.786,0.786 0 0 0 0.116,0.174 q 0.229,0.258 0.63,0.258 a 2.662,2.662 0 0 0 0.39,-0.028 2.453,2.453 0 0 0 0.025,-0.003 q 0.2,-0.032 0.317,-0.066 z m -17.607,-4.722 -0.112,0.752 q -0.277,-0.061 -0.499,-0.071 a 1.901,1.901 0 0 0 -0.087,-0.002 q -0.65,0 -1.111,0.527 a 1.851,1.851 0 0 0 -0.447,1.039 2.46,2.46 0 0 0 -0.015,0.275 v 2.871 h -0.81 v -5.352 h 0.669 l 0.092,0.991 h 0.04 a 2.737,2.737 0 0 1 0.306,-0.437 2.091,2.091 0 0 1 0.411,-0.368 q 0.42,-0.284 0.923,-0.284 a 3.721,3.721 0 0 1 0.333,0.015 2.716,2.716 0 0 1 0.307,0.044 z m 1.811,0.039 v 5.352 h -0.81 v -5.352 z m 3.97,5.23 h -0.972 a 1.863,1.863 0 0 0 -0.335,0.028 q -0.317,0.058 -0.524,0.235 -0.308,0.264 -0.308,0.757 a 0.814,0.814 0 0 0 0.054,0.302 q 0.087,0.219 0.313,0.357 0.366,0.225 1.049,0.225 a 5.449,5.449 0 0 0 0.533,-0.024 q 0.533,-0.053 0.868,-0.22 a 1.346,1.346 0 0 0 0.111,-0.061 q 0.49,-0.305 0.49,-0.828 a 1.097,1.097 0 0 0 -0.02,-0.218 q -0.053,-0.263 -0.248,-0.385 a 0.769,0.769 0 0 0 -0.182,-0.08 q -0.29,-0.088 -0.829,-0.088 z m -1.699,-3.516 a 1.582,1.582 0 0 0 0.032,0.332 q 0.07,0.322 0.285,0.518 0.318,0.288 0.884,0.288 0.937,0 1.134,-0.719 a 1.642,1.642 0 0 0 0.053,-0.434 q 0,-0.957 -0.757,-1.154 a 1.763,1.763 0 0 0 -0.445,-0.052 q -0.437,0 -0.72,0.181 a 0.933,0.933 0 0 0 -0.159,0.127 q -0.261,0.261 -0.3,0.736 a 2.132,2.132 0 0 0 -0.007,0.177 z m -3.013,-3.572 a 0.379,0.379 0 0 0 -0.084,0.119 q -0.053,0.116 -0.053,0.289 0,0.138 0.035,0.24 a 0.418,0.418 0 0 0 0.102,0.168 q 0.137,0.134 0.342,0.134 a 0.473,0.473 0 0 0 0.337,-0.134 0.396,0.396 0 0 0 0.077,-0.103 q 0.035,-0.066 0.051,-0.151 a 0.839,0.839 0 0 0 0.013,-0.154 0.927,0.927 0 0 0 -0.004,-0.088 q -0.019,-0.208 -0.137,-0.317 a 0.478,0.478 0 0 0 -0.337,-0.132 0.619,0.619 0 0 0 -0.041,0.001 0.469,0.469 0 0 0 -0.301,0.128 z"
       id="right_labelLayer"
       stroke="#777777"
       fill="#777777"
       style="fill:#777777;stroke:#777777"
       vector-effect="non-scaling-stroke" />
    <path
       d="m 212,306 v 6.805 h -6 v 24.39 h 6 V 344 h 32.415 v 6 h 24.39 v -6 h 24.39 v 6 h 24.39 v -6 h 24.39 8.025 v -6.805 h 6 v -24.39 h -6 V 306 h -32.415 v -6 h -24.39 v 6 h -24.39 v -6 h -24.39 v 6 h -24.39 z"
       id="bottom_outsideCutPath"
       stroke="#FF0000"
       stroke-width="0.1"
       style="stroke:#ff0000;stroke-width:0.1"
       vector-effect="non-scaling-stroke" />
    <path
       d="m 297.45,328.75 h -0.81 v -3.482 q 0,-0.4 -0.108,-0.675 a 0.98,0.98 0 0 0 -0.166,-0.284 0.853,0.853 0 0 0 -0.396,-0.256 q -0.197,-0.064 -0.453,-0.064 a 2.086,2.086 0 0 0 -0.425,0.04 q -0.442,0.093 -0.694,0.395 -0.359,0.432 -0.361,1.329 a 4.551,4.551 0 0 0 0,0.009 v 2.988 h -0.81 v -3.482 q 0,-0.4 -0.108,-0.675 a 0.98,0.98 0 0 0 -0.166,-0.284 0.85,0.85 0 0 0 -0.391,-0.254 q -0.141,-0.046 -0.313,-0.06 a 1.898,1.898 0 0 0 -0.15,-0.006 2.013,2.013 0 0 0 -0.417,0.04 q -0.45,0.096 -0.699,0.417 -0.321,0.413 -0.351,1.306 a 5.643,5.643 0 0 0 -0.003,0.19 v 2.808 h -0.811 v -5.352 h 0.66 l 0.131,0.733 h 0.039 a 1.593,1.593 0 0 1 0.647,-0.611 1.924,1.924 0 0 1 0.76,-0.213 2.324,2.324 0 0 1 0.175,-0.006 2.654,2.654 0 0 1 0.598,0.062 q 0.758,0.175 1.043,0.846 h 0.039 a 1.692,1.692 0 0 1 0.638,-0.633 2.033,2.033 0 0 1 0.055,-0.031 2.051,2.051 0 0 1 0.753,-0.229 2.558,2.558 0 0 1 0.283,-0.015 q 0.612,0 1.017,0.212 a 1.336,1.336 0 0 1 0.343,0.254 q 0.328,0.339 0.418,0.975 a 3.718,3.718 0 0 1 0.033,0.517 z m -32.09,-0.689 h -0.058 l -0.171,0.689 h -0.581 v -7.598 h 0.81 v 1.846 q 0,0.6 -0.036,1.081 a 10.075,10.075 0 0 1 -0.003,0.032 h 0.039 a 1.843,1.843 0 0 1 1.345,-0.781 2.768,2.768 0 0 1 0.335,-0.02 2.477,2.477 0 0 1 0.697,0.093 1.854,1.854 0 0 1 0.941,0.628 q 0.467,0.576 0.561,1.537 a 5.203,5.203 0 0 1 0.023,0.501 4.752,4.752 0 0 1 -0.063,0.8 q -0.073,0.426 -0.23,0.768 a 2.278,2.278 0 0 1 -0.296,0.481 1.919,1.919 0 0 1 -1.363,0.717 2.749,2.749 0 0 1 -0.27,0.013 q -0.522,0 -0.955,-0.193 a 1.795,1.795 0 0 1 -0.725,-0.594 z m 13.819,0.02 v 0.62 a 0.797,0.797 0 0 1 -0.095,0.038 q -0.101,0.033 -0.245,0.059 a 3.033,3.033 0 0 1 -0.048,0.008 q -0.257,0.042 -0.462,0.042 a 2.117,2.117 0 0 1 -0.624,-0.084 q -0.929,-0.287 -0.929,-1.552 v -3.184 h -0.766 v -0.39 l 0.766,-0.337 0.342,-1.143 h 0.469 v 1.24 h 1.553 v 0.63 h -1.553 v 3.15 a 1.632,1.632 0 0 0 0.023,0.286 q 0.029,0.158 0.09,0.282 a 0.786,0.786 0 0 0 0.116,0.174 q 0.23,0.259 0.63,0.259 a 2.662,2.662 0 0 0 0.39,-0.028 2.453,2.453 0 0 0 0.025,-0.004 q 0.2,-0.032 0.318,-0.066 z m 3.53,0 v 0.62 a 0.797,0.797 0 0 1 -0.095,0.038 q -0.1,0.033 -0.245,0.059 a 3.033,3.033 0 0 1 -0.048,0.008 q -0.257,0.042 -0.462,0.042 a 2.117,2.117 0 0 1 -0.624,-0.084 q -0.928,-0.287 -0.928,-1.552 v -3.184 h -0.767 v -0.39 l 0.767,-0.337 0.341,-1.143 h 0.469 v 1.24 h 1.553 v 0.63 h -1.553 v 3.15 a 1.632,1.632 0 0 0 0.024,0.286 q 0.028,0.158 0.089,0.282 a 0.786,0.786 0 0 0 0.117,0.174 q 0.229,0.259 0.63,0.259 a 2.662,2.662 0 0 0 0.389,-0.028 2.453,2.453 0 0 0 0.026,-0.004 q 0.2,-0.032 0.317,-0.066 z m -7.487,-1.197 a 4.187,4.187 0 0 0 0.075,-0.815 q 0,-0.52 -0.11,-0.952 a 2.524,2.524 0 0 0 -0.552,-1.069 2.122,2.122 0 0 0 -0.985,-0.636 2.724,2.724 0 0 0 -0.799,-0.111 3.148,3.148 0 0 0 -0.566,0.048 2.144,2.144 0 0 0 -1.251,0.682 2.239,2.239 0 0 0 -0.275,0.381 q -0.379,0.661 -0.379,1.657 a 4.055,4.055 0 0 0 0.051,0.657 2.998,2.998 0 0 0 0.252,0.818 2.664,2.664 0 0 0 0.059,0.115 2.194,2.194 0 0 0 0.8,0.852 q 0.557,0.337 1.274,0.337 a 3.147,3.147 0 0 0 0.55,-0.046 2.161,2.161 0 0 0 1.272,-0.689 2.261,2.261 0 0 0 0.269,-0.37 q 0.22,-0.376 0.315,-0.859 z m 13.101,0 a 4.187,4.187 0 0 0 0.074,-0.815 q 0,-0.52 -0.11,-0.952 a 2.524,2.524 0 0 0 -0.551,-1.069 2.122,2.122 0 0 0 -0.985,-0.636 2.724,2.724 0 0 0 -0.8,-0.111 3.148,3.148 0 0 0 -0.565,0.048 2.144,2.144 0 0 0 -1.251,0.682 2.239,2.239 0 0 0 -0.275,0.381 q -0.38,0.661 -0.38,1.657 a 4.055,4.055 0 0 0 0.051,0.657 2.998,2.998 0 0 0 0.252,0.818 2.664,2.664 0 0 0 0.059,0.115 2.194,2.194 0 0 0 0.801,0.852 q 0.556,0.337 1.274,0.337 a 3.147,3.147 0 0 0 0.55,-0.046 2.161,2.161 0 0 0 1.271,-0.689 2.261,2.261 0 0 0 0.269,-0.37 q 0.22,-0.376 0.316,-0.859 z m -17.103,-0.815 q 0,1.026 0.41,1.563 a 1.328,1.328 0 0 0 0.865,0.509 2.013,2.013 0 0 0 0.341,0.028 1.883,1.883 0 0 0 0.497,-0.062 1.31,1.31 0 0 0 0.711,-0.473 1.74,1.74 0 0 0 0.271,-0.528 q 0.08,-0.243 0.115,-0.541 a 4.27,4.27 0 0 0 0.027,-0.496 4.044,4.044 0 0 0 -0.038,-0.576 q -0.043,-0.293 -0.132,-0.531 a 1.669,1.669 0 0 0 -0.243,-0.443 1.333,1.333 0 0 0 -0.829,-0.495 2.044,2.044 0 0 0 -0.389,-0.035 1.929,1.929 0 0 0 -0.48,0.056 1.291,1.291 0 0 0 -0.721,0.467 q -0.405,0.522 -0.405,1.557 z m 13.1,0 q 0,1.026 0.41,1.563 a 1.328,1.328 0 0 0 0.866,0.509 2.013,2.013 0 0 0 0.34,0.028 1.883,1.883 0 0 0 0.497,-0.062 1.31,1.31 0 0 0 0.712,-0.473 1.74,1.74 0 0 0 0.271,-0.528 q 0.08,-0.243 0.114,-0.541 a 4.27,4.27 0 0 0 0.028,-0.496 4.044,4.044 0 0 0 -0.039,-0.576 q -0.042,-0.293 -0.131,-0.531 a 1.669,1.669 0 0 0 -0.243,-0.443 1.333,1.333 0 0 0 -0.829,-0.495 2.044,2.044 0 0 0 -0.389,-0.035 1.929,1.929 0 0 0 -0.481,0.056 1.291,1.291 0 0 0 -0.72,0.467 q -0.406,0.522 -0.406,1.557 z m -18.28,-1.879 a 1.078,1.078 0 0 0 -0.313,0.275 q -0.367,0.476 -0.367,1.604 a 5.359,5.359 0 0 0 0.027,0.554 q 0.058,0.559 0.245,0.899 a 1.222,1.222 0 0 0 0.104,0.161 1.176,1.176 0 0 0 0.597,0.403 q 0.199,0.062 0.442,0.078 a 2.606,2.606 0 0 0 0.167,0.005 1.616,1.616 0 0 0 0.459,-0.062 1.166,1.166 0 0 0 0.655,-0.483 q 0.366,-0.544 0.366,-1.565 a 4.789,4.789 0 0 0 -0.029,-0.545 q -0.074,-0.644 -0.337,-1.012 -0.367,-0.513 -1.133,-0.513 -0.54,0 -0.883,0.201 z"
       id="bottom_labelLayer"
       stroke="#777777"
       fill="#777777"
       style="fill:#777777;stroke:#777777"
       vector-effect="non-scaling-stroke" />
  </g>
  <path
     id="path24"
     style="fill:#000000;stroke-width:0.588826"
     d="m 74.364378,194.74945 c 0.142589,0.004 0.124269,0.009 0.0097,0.0196 0,-0.007 -0.0097,-0.0128 -0.0097,-0.0196 z m -0.02036,-0.56755 h 9.7e-5 c 0.01745,8.8e-4 0.04168,0.0108 0.06301,0.0166 -0.0126,0.0142 -0.0252,0.0241 -0.03877,0.0391 -0.04653,0.004 -0.09015,0.0148 -0.134835,0.034 0.0097,-0.0261 0.01357,-0.0483 0.02811,-0.0631 0.01939,-0.0198 0.0475,-0.0285 0.08239,-0.0266 z m -3.441726,-24.60511 v 0 c -0.095,0.003 -0.26366,0.16701 -0.460726,0.46936 -0.315228,0.48377 -0.558338,1.27547 -0.540405,1.75923 0.03393,0.92875 1.019257,-0.94154 1.080907,-2.05227 0.0097,-0.12097 -0.02326,-0.17826 -0.07949,-0.17632 z M 69.36328,29.933241 v 0 c -0.02229,0.02898 -0.04168,0.05952 -0.06301,0.08918 -0.02617,-0.01444 -0.05234,-0.02724 -0.07755,-0.04207 0.04653,-0.01541 0.09403,-0.0315 0.140457,-0.04711 z m -2.673527,-2.120395 -1.94e-4,5.8e-5 c -0.0097,0.0058 -0.01163,0.0087 -0.01842,0.01347 0,-0.0029 0,-0.0058 -0.0097,-0.0078 0.0097,-0.0019 0.01648,-0.0039 0.02617,-0.0058 z M 93.46525,15.022897 v 4.9e-5 c -0.116805,-0.0019 -0.23836,-5.82e-4 -0.365149,0.0029 -1.577789,0.04459 -3.936475,0.487178 -7.336617,1.314914 -4.036996,0.982752 -12.259102,2.59916 -18.271023,3.59209 -6.011922,0.992891 -11.503892,2.177944 -12.204722,2.633319 -1.061327,0.689644 -1.334001,1.59228 -1.632557,5.40091 -0.797958,10.182473 -2.215515,27.637712 -3.323564,40.928043 -3.469546,41.615908 -3.294387,38.467538 -2.184981,39.272008 0.810947,0.58808 1.972309,0.57016 5.887459,-0.0912 2.682445,-0.45314 7.061228,-0.98089 9.730684,-1.17266 5.553232,-0.39892 7.688099,0.2121 9.9167,2.8387 2.623413,3.09197 2.626708,2.75703 -0.320753,33.62366 -0.646742,6.77271 -1.4352,14.73388 -1.752173,17.69144 -0.621151,5.79607 -0.706452,7.5652 -0.347507,7.18117 0.125529,-0.13438 2.752625,-6.04937 5.837926,-13.1446 3.085301,-7.09523 7.355325,-16.99092 9.488835,-21.98982 5.282011,-12.3761 15.329082,-35.983306 18.263942,-42.914198 1.32266,-3.12357 2.24499,-6.092406 2.04967,-6.597091 -0.49582,-1.281433 -1.91221,-1.169746 -11.33649,0.893632 -5.247697,1.148964 -9.271316,1.719195 -11.005071,1.559362 -5.054799,-0.466028 -8.363338,-4.121193 -8.31807,-9.189349 0.02326,-2.596038 0.961388,-5.449183 15.436393,-46.939567 2.303531,-6.602577 4.187824,-12.479248 4.187824,-13.059444 0,-1.207192 -0.648292,-1.810818 -2.400756,-1.834363 z m -28.454872,-3.860072 9.7e-5,9e-6 c 0.03005,0.161104 -0.0097,0.269854 -0.101975,0.314579 0,-0.0019 -0.01745,-0.0058 -0.02326,-0.0087 0.01163,-0.07832 0.03005,-0.162587 0.04944,-0.248964 0.0252,-0.01958 0.05041,-0.03703 0.07561,-0.05709 z M 93.864811,8.7909747 v 9.6e-6 c -3.064364,0 -40.003451,7.6115117 -41.42634,8.5361517 -1.918026,1.246295 -3.679698,4.107379 -4.131797,6.709805 -0.196,1.128793 -0.741057,7.065998 -1.211186,13.193697 -0.470128,6.1277 -1.257326,15.758814 -1.749167,21.402737 -2.572038,29.512264 -3.910982,47.988235 -3.598856,49.651545 0.397525,2.11802 3.63317,5.24254 6.052634,5.84472 0.868816,0.21626 5.541018,-0.19248 10.382369,-0.90867 8.107628,-1.19937 8.915279,-1.22865 10.234837,-0.37118 1.203819,0.78224 1.432485,1.40507 1.432485,3.89965 0,3.07568 -2.516107,33.66274 -3.550389,43.15863 -0.323564,2.97051 -0.588387,7.36442 -0.588387,9.76441 v 4.364 l 1.862289,0.64368 c 2.393389,0.82745 2.283466,0.86048 2.235096,-0.67573 -0.0378,-1.20841 -0.07948,-1.22423 -0.487964,-0.18935 -0.746873,1.89075 -1.232123,-0.32953 -0.647516,-2.96344 0.550001,-2.47858 1.27584,-8.91086 2.638146,-23.38087 0.485734,-5.16015 1.315777,-13.72274 1.844066,-19.02789 1.456815,-14.62786 0.868137,-17.49776 -4.046302,-19.72667 -2.122168,-0.96247 -2.562053,-0.95114 -10.051535,0.25747 -4.307828,0.69518 -8.83618,1.26359 -10.062585,1.26282 -3.575688,-0.002 -3.754337,-0.98533 -2.588225,-14.226596 0.967786,-10.988233 2.122459,-24.557752 3.305437,-38.842214 0.320463,-3.870125 1.002973,-12.578256 1.516333,-19.350981 0.513264,-6.772715 1.193157,-13.284631 1.510711,-14.471031 0.7176,-2.680438 0.856215,-2.728217 15.928331,-5.479552 6.341497,-1.157601 13.855599,-2.617587 16.697694,-3.244447 6.871239,-1.515645 10.846875,-1.517448 11.662766,-0.0058 0.33665,0.623787 0.612136,1.696193 0.612136,2.382871 0,0.686678 -3.087046,10.005443 -6.860285,20.708469 -9.918833,28.135757 -13.243172,37.981618 -13.243172,39.224918 0,2.202924 2.276002,5.567113 4.462534,6.596093 2.567772,1.208404 4.366473,1.068703 14.147369,-1.09851 8.802152,-1.950344 11.592192,-1.864791 12.383562,0.379689 0.44696,1.26764 0.24195,2.365685 -0.98446,5.277678 -4.08846,9.707886 -19.939441,46.894343 -28.811972,67.592453 -4.147403,9.67531 -7.958446,19.04288 -8.468511,20.81666 -1.289605,4.48471 -1.47407,9.31584 -0.382306,10.00084 0.70558,0.44275 0.67427,0.53725 -0.180394,0.545 -1.194126,0.0104 -1.446735,2.84112 -0.422728,4.7387 0.762868,1.41369 2.7155,1.47534 3.431161,0.1082 0.295357,-0.56439 0.460047,-1.68581 0.365633,-2.49208 -0.09403,-0.80628 -0.193576,-1.66411 -0.220717,-1.906 -0.02714,-0.24186 -0.514815,-0.44397 -1.083913,-0.44882 -0.859801,-0.008 -0.889269,-0.1 -0.174286,-0.5485 0.595366,-0.37345 0.808814,-1.37166 0.692978,-3.23944 -0.128534,-2.07294 0.313484,-3.74884 1.904747,-7.22073 3.074347,-6.70785 8.663057,-19.49458 8.663057,-19.82085 0,-0.15627 2.896474,-6.8052 6.436491,-14.77509 21.62202,-48.679837 24.42495,-55.424752 24.13318,-58.073997 -0.50018,-4.542408 -4.88739,-7.507792 -9.67824,-6.542004 -1.24647,0.251291 -5.562344,1.143042 -9.590809,1.982138 C 83.84856,80.951078 82.2667,80.780407 82.2667,77.518192 c 0,-0.772193 3.219748,-10.81259 7.154769,-22.311897 3.935022,-11.499316 8.325147,-24.327069 9.755984,-28.506276 1.430837,-4.179207 2.600247,-8.665306 2.599277,-9.968783 0,-4.350828 -3.580827,-7.9405521 -7.911919,-7.9405521 z m 0.667194,-1.627991 c 1.046787,-0.010178 1.950887,0.03887 2.459885,0.1497722 2.667905,0.5811269 5.73004,3.6955951 6.52993,6.6416801 0.86203,3.174713 0.7302,3.656289 -7.328469,26.794632 -13.556462,38.923474 -12.972049,36.959967 -11.198163,37.635003 0.524993,0.19978 4.963778,-0.490251 9.864162,-1.533306 4.900384,-1.043055 10.02895,-1.896478 11.39658,-1.896478 5.30576,0 8.78016,3.500933 8.80391,8.870767 0.0145,3.236004 -0.8062,5.358395 -10.32673,26.703466 -0.5755,1.29003 -3.22741,7.35903 -5.893083,13.48673 -2.665675,6.1277 -5.521922,12.59253 -6.347118,14.36634 -1.755662,3.77396 -12.862029,29.46454 -16.202557,37.47872 -2.204271,5.2881 -3.006784,10.10285 -1.806746,10.83837 0.271899,0.16668 0.539048,1.48168 0.59401,2.92186 0.08336,2.19526 -0.152089,2.81515 -1.46079,3.83604 -0.869689,0.67842 -2.43226,1.21774 -3.528095,1.21774 -1.808684,0 -2.020388,-0.19723 -2.63262,-2.45201 -0.640441,-2.35864 -0.385506,-12.80028 0.359623,-14.72599 0.224208,-0.57948 -0.202494,-0.9881 -1.324404,-1.26733 -0.910401,-0.22662 -1.853468,-0.72095 -2.095609,-1.09851 -0.704901,-1.0989 -0.537303,-5.63418 0.717697,-19.42562 3.212963,-35.30544 3.546318,-40.44395 2.679634,-41.30725 -0.707519,-0.70467 -2.175385,-0.6278 -10.301624,0.5385 -9.335582,1.33983 -9.512874,1.34357 -11.921384,0.26648 -1.344664,-0.60133 -3.149859,-2.01087 -4.011987,-3.13224 -1.954377,-2.5421 -1.969013,-4.71765 -0.170216,-25.876955 2.15532,-25.352589 2.990985,-35.600172 3.920094,-48.083161 1.091764,-14.668155 1.641668,-17.79887 3.56551,-20.300223 1.686743,-2.193085 5.730039,-3.683585 13.289701,-4.89798 1.474942,-0.236944 3.418559,-0.576115 5.506122,-0.950744 0.2276,-0.0078 0.430967,-0.04498 0.60758,-0.107703 7.425505,-1.341097 16.778245,-3.1743932 17.537623,-3.4818862 1.3214,-0.5350155 1.186856,-0.5101714 5.402112,-1.0033311 1.079066,-0.1262657 2.268733,-0.1952534 3.315422,-0.205383 z M 61.652014,7.0357583 v 0 c 0.02811,0.357375 0.03005,0.4301721 0.04265,0.6311544 h -5.81e-4 c -0.01745,-0.046334 -0.03683,-0.091699 -0.05428,-0.1387509 0,-0.1053377 0.0097,-0.2543054 0.01163,-0.4924035 z" />
</svg>
