<?xml version="1.0" encoding="UTF-8" standalone="no"?>
<svg
   xmlns:dc="http://purl.org/dc/elements/1.1/"
   xmlns:cc="http://creativecommons.org/ns#"
   xmlns:rdf="http://www.w3.org/1999/02/22-rdf-syntax-ns#"
   xmlns:svg="http://www.w3.org/2000/svg"
   xmlns="http://www.w3.org/2000/svg"
   xmlns:sodipodi="http://sodipodi.sourceforge.net/DTD/sodipodi-0.dtd"
   xmlns:inkscape="http://www.inkscape.org/namespaces/inkscape"
   width="356mm"
   height="503mm"
   viewBox="0 0 356 503"
   version="1.1"
   preserveAspectRatio="xMidYMid meet"
   id="svg3277"
   sodipodi:docname="caja grande.svg"
   inkscape:version="1.0.2 (394de47547, 2021-03-26)">
  <metadata
     id="metadata3283">
    <rdf:RDF>
      <cc:Work
         rdf:about="">
        <dc:format>image/svg+xml</dc:format>
        <dc:type
           rdf:resource="http://purl.org/dc/dcmitype/StillImage" />
        <dc:title></dc:title>
      </cc:Work>
    </rdf:RDF>
  </metadata>
  <defs
     id="defs3281" />
  <sodipodi:namedview
     pagecolor="#ffffff"
     bordercolor="#666666"
     borderopacity="1"
     objecttolerance="10"
     gridtolerance="10"
     guidetolerance="10"
     inkscape:pageopacity="0"
     inkscape:pageshadow="2"
     inkscape:window-width="1853"
     inkscape:window-height="1025"
     id="namedview3279"
     showgrid="false"
     inkscape:zoom="0.47584683"
     inkscape:cx="-197.98844"
     inkscape:cy="1176.3845"
     inkscape:window-x="67"
     inkscape:window-y="27"
     inkscape:window-maximized="1"
     inkscape:current-layer="svg3277"
     inkscape:document-rotation="0" />
  <path
     d="m 156,253 v 39.688 h -3 v 24.375 h 3 v 24.375 h -3 v 24.375 h 3 v 24.375 h -3 v 24.375 h 3 v 24.375 h -3 v 24.375 h 3 V 487.688 503 h 9.813 v -3 h 24.375 v 3 H 200 v -39.687 h 3 v -24.375 h -3 v -24.375 h 3 v -24.375 h -3 v -24.375 h 3 v -24.375 h -3 v -24.375 h 3 v -24.375 h -3 V 268.313 253 h -9.812 v 3 h -24.375 v -3 z"
     id="left_outsideCutPath"
     stroke="#FF0000"
     stroke-width="0.1"
     style="fill:none;fill-rule:evenodd;stroke:#ff0000;stroke-width:0.1;stroke-linecap:round;stroke-opacity:0.999548"
     vector-effect="non-scaling-stroke" />
  <path
     d="m 181.557,376.425 v 0.63 h -1.362 v 4.722 h -0.811 v -4.722 h -0.957 v -0.366 l 0.957,-0.293 v -0.298 a 3.285,3.285 0 0 1 0.077,-0.744 q 0.287,-1.229 1.647,-1.229 a 2.61,2.61 0 0 1 0.369,0.029 q 0.18,0.025 0.38,0.075 a 5.247,5.247 0 0 1 0.247,0.067 l -0.21,0.65 q -0.333,-0.108 -0.597,-0.139 a 1.743,1.743 0 0 0 -0.204,-0.013 1.093,1.093 0 0 0 -0.263,0.03 0.702,0.702 0 0 0 -0.415,0.276 q -0.22,0.305 -0.22,0.979 v 0.346 z m -3.794,2.31 v 0.512 h -3.686 q 0.016,0.644 0.232,1.076 a 1.522,1.522 0 0 0 0.244,0.355 1.473,1.473 0 0 0 0.773,0.436 2.232,2.232 0 0 0 0.499,0.052 4.281,4.281 0 0 0 1.603,-0.317 4.905,4.905 0 0 0 0.106,-0.044 v 0.723 a 4.866,4.866 0 0 1 -0.444,0.167 3.721,3.721 0 0 1 -0.369,0.099 q -0.384,0.08 -0.926,0.08 a 3.15,3.15 0 0 1 -0.788,-0.093 2.23,2.23 0 0 1 -1.084,-0.629 q -0.647,-0.681 -0.684,-1.861 a 4.63,4.63 0 0 1 -0.002,-0.146 4.256,4.256 0 0 1 0.079,-0.844 q 0.103,-0.513 0.344,-0.912 a 2.4,2.4 0 0 1 0.214,-0.3 2.077,2.077 0 0 1 1.514,-0.755 2.865,2.865 0 0 1 0.197,-0.006 2.469,2.469 0 0 1 0.696,0.093 1.879,1.879 0 0 1 0.896,0.568 2.266,2.266 0 0 1 0.514,1.036 3.299,3.299 0 0 1 0.072,0.71 z m 7.232,2.373 v 0.62 a 0.797,0.797 0 0 1 -0.095,0.037 q -0.101,0.034 -0.245,0.06 a 3.033,3.033 0 0 1 -0.049,0.008 q -0.256,0.041 -0.461,0.041 a 2.117,2.117 0 0 1 -0.624,-0.084 q -0.929,-0.286 -0.929,-1.551 v -3.184 h -0.766 v -0.391 l 0.766,-0.336 0.342,-1.143 h 0.469 v 1.24 h 1.553 v 0.63 h -1.553 v 3.149 a 1.632,1.632 0 0 0 0.023,0.287 q 0.028,0.157 0.09,0.282 a 0.786,0.786 0 0 0 0.116,0.174 q 0.23,0.258 0.63,0.258 a 2.662,2.662 0 0 0 0.39,-0.027 2.453,2.453 0 0 0 0.025,-0.004 q 0.2,-0.032 0.318,-0.066 z m -13.179,-6.929 v 7.598 h -0.811 v -7.598 z m 2.28,4.409 h 2.798 q 0,-0.518 -0.156,-0.873 a 1.254,1.254 0 0 0 -0.186,-0.301 1.11,1.11 0 0 0 -0.668,-0.381 1.666,1.666 0 0 0 -0.308,-0.027 q -0.645,0 -1.028,0.42 a 1.601,1.601 0 0 0 -0.319,0.537 q -0.101,0.277 -0.133,0.625 z"
     id="left_labelLayer"
     stroke="#777777"
     fill="#777777"
     style="fill:#ff0000;fill-opacity:1;fill-rule:evenodd;stroke:#ff0000;stroke-width:0.25mm;stroke-linecap:round;stroke-opacity:0.999548"
     vector-effect="non-scaling-stroke" />
  <path
     d="m 209,456 v 9.813 h -3 v 24.375 h 3 V 500 h 35.438 v 3 h 24.375 v -3 h 24.375 v 3 h 24.375 v -3 H 341.938 353 v -9.812 h 3 v -24.375 h -3 V 456 h -35.437 v -3 h -24.375 v 3 h -24.375 v -3 h -24.375 v 3 h -24.375 z"
     id="top_outsideCutPath"
     stroke="#FF0000"
     stroke-width="0.1"
     style="fill:none;fill-rule:evenodd;stroke:#ff0000;stroke-width:0.1;stroke-linecap:round;stroke-opacity:0.999548"
     vector-effect="non-scaling-stroke" />
  <path
     d="m 284.594,479.406 h -0.059 a 7.671,7.671 0 0 1 0.05,0.567 6.428,6.428 0 0 1 0.009,0.322 v 2.202 h -0.811 v -7.754 h 0.659 l 0.113,0.733 h 0.039 a 2.182,2.182 0 0 1 0.315,-0.359 1.687,1.687 0 0 1 0.412,-0.276 2.03,2.03 0 0 1 0.582,-0.17 2.627,2.627 0 0 1 0.37,-0.025 2.485,2.485 0 0 1 0.702,0.093 1.836,1.836 0 0 1 0.941,0.634 q 0.579,0.728 0.579,2.041 a 4.752,4.752 0 0 1 -0.063,0.8 q -0.073,0.426 -0.23,0.768 a 2.278,2.278 0 0 1 -0.295,0.48 1.919,1.919 0 0 1 -1.364,0.718 2.749,2.749 0 0 1 -0.27,0.012 q -0.522,0 -0.954,-0.192 a 1.795,1.795 0 0 1 -0.725,-0.594 z m -7.92,0.02 v 0.62 a 0.797,0.797 0 0 1 -0.095,0.037 q -0.101,0.034 -0.245,0.06 a 3.033,3.033 0 0 1 -0.048,0.008 q -0.257,0.041 -0.462,0.041 a 2.117,2.117 0 0 1 -0.624,-0.084 q -0.929,-0.286 -0.929,-1.551 v -3.184 h -0.766 v -0.391 l 0.766,-0.336 0.342,-1.143 h 0.469 v 1.24 h 1.553 v 0.63 h -1.553 v 3.149 a 1.632,1.632 0 0 0 0.024,0.287 q 0.028,0.157 0.089,0.282 a 0.786,0.786 0 0 0 0.116,0.174 q 0.23,0.258 0.63,0.258 a 2.662,2.662 0 0 0 0.39,-0.027 2.453,2.453 0 0 0 0.025,-0.004 q 0.201,-0.032 0.318,-0.066 z m 5.614,-1.197 a 4.187,4.187 0 0 0 0.074,-0.815 q 0,-0.52 -0.11,-0.953 a 2.524,2.524 0 0 0 -0.551,-1.068 2.122,2.122 0 0 0 -0.985,-0.636 2.724,2.724 0 0 0 -0.8,-0.111 3.148,3.148 0 0 0 -0.565,0.048 2.144,2.144 0 0 0 -1.251,0.681 2.239,2.239 0 0 0 -0.275,0.382 q -0.38,0.661 -0.38,1.657 a 4.055,4.055 0 0 0 0.051,0.657 2.998,2.998 0 0 0 0.252,0.818 2.664,2.664 0 0 0 0.059,0.115 2.194,2.194 0 0 0 0.8,0.851 q 0.557,0.337 1.275,0.337 a 3.147,3.147 0 0 0 0.549,-0.046 2.161,2.161 0 0 0 1.272,-0.688 2.261,2.261 0 0 0 0.269,-0.37 q 0.22,-0.376 0.316,-0.859 z m -4.003,-0.815 q 0,1.025 0.41,1.563 a 1.328,1.328 0 0 0 0.865,0.509 2.013,2.013 0 0 0 0.341,0.028 1.883,1.883 0 0 0 0.497,-0.062 1.31,1.31 0 0 0 0.712,-0.473 1.74,1.74 0 0 0 0.271,-0.528 q 0.079,-0.244 0.114,-0.541 a 4.27,4.27 0 0 0 0.027,-0.496 4.044,4.044 0 0 0 -0.038,-0.576 q -0.042,-0.294 -0.131,-0.531 a 1.669,1.669 0 0 0 -0.243,-0.443 1.333,1.333 0 0 0 -0.829,-0.495 2.044,2.044 0 0 0 -0.389,-0.035 1.929,1.929 0 0 0 -0.481,0.056 1.291,1.291 0 0 0 -0.721,0.466 q -0.405,0.523 -0.405,1.558 z m 6.309,-0.181 v 0.181 a 5.359,5.359 0 0 0 0.026,0.554 q 0.059,0.559 0.245,0.899 a 1.222,1.222 0 0 0 0.105,0.161 1.176,1.176 0 0 0 0.596,0.402 q 0.2,0.063 0.443,0.078 a 2.606,2.606 0 0 0 0.167,0.006 1.366,1.366 0 0 0 0.531,-0.1 q 0.328,-0.137 0.555,-0.462 a 1.96,1.96 0 0 0 0.269,-0.572 q 0.078,-0.263 0.107,-0.578 a 4.318,4.318 0 0 0 0.017,-0.398 q 0,-0.657 -0.169,-1.113 a 1.718,1.718 0 0 0 -0.224,-0.422 1.261,1.261 0 0 0 -0.922,-0.526 1.744,1.744 0 0 0 -0.184,-0.009 q -0.82,0 -1.186,0.454 -0.343,0.425 -0.374,1.321 a 5.158,5.158 0 0 0 -0.002,0.124 z"
     id="top_labelLayer"
     stroke="#777777"
     fill="#777777"
     style="fill:#ff0000;fill-opacity:1;fill-rule:evenodd;stroke:#ff0000;stroke-width:0.25mm;stroke-linecap:round;stroke-opacity:0.999548"
     vector-effect="non-scaling-stroke" />
  <path
     d="M 0,0 V 39.688 H 3 V 64.063 H 0 v 24.375 h 3 v 24.375 H 0 v 24.375 h 3 v 24.375 H 0 v 24.375 h 3 v 24.375 H 0 V 234.688 250 h 38.438 v -3 h 24.375 v 3 h 24.375 v -3 h 24.375 v 3 H 135.938 150 v -39.687 h -3 v -24.375 h 3 v -24.375 h -3 v -24.375 h 3 v -24.375 h -3 V 88.438 h 3 V 64.063 h -3 V 39.688 h 3 V 15.313 0 H 111.563 V 3 H 87.188 V 0 H 62.813 V 3 H 38.438 V 0 H 14.063 Z"
     id="back_outsideCutPath"
     stroke="#FF0000"
     stroke-width="0.1"
     style="fill:none;fill-rule:evenodd;stroke:#ff0000;stroke-width:0.1;stroke-linecap:round;stroke-opacity:0.999548"
     vector-effect="non-scaling-stroke" />
  <path
     d="m 93.07376,126.89666 h 0.08371 q 0.45072,-0.63888 1.372909,-1.67696 l 3.710218,-3.92986 h 2.064733 l -4.653157,4.89425 4.977967,6.59197 h -2.106948 l -4.055771,-5.42868 -1.309951,1.13181 v 4.29687 h -1.718462 v -16.30678 h 1.718462 v 8.64596 a 11.592821,11.592821 0 0 1 -0.005,0.32767 q -0.01502,0.53657 -0.07584,1.41011 a 72.357833,72.357833 0 0 1 -0.0029,0.0436 z m -35.201998,4.40132 h -0.125916 l -0.3663,1.47808 h -1.247709 v -16.30678 h 1.739925 v 3.96133 q 0,1.3307 -0.0837,2.38953 h 0.0837 q 1.215515,-1.71917 3.60505,-1.71917 a 5.3170727,5.3170727 0 0 1 1.496678,0.20032 3.9799348,3.9799348 0 0 1 2.019658,1.34572 q 1.252002,1.54604 1.252002,4.37557 a 10.19988,10.19988 0 0 1 -0.135216,1.71631 q -0.277587,1.62546 -1.127517,2.68 a 4.1187281,4.1187281 0 0 1 -2.926823,1.53889 5.9001478,5.9001478 0 0 1 -0.578782,0.0279 5.2770086,5.2770086 0 0 1 -1.325691,-0.16168 4.5916271,4.5916271 0 0 1 -0.7233,-0.25255 3.8533038,3.8533038 0 0 1 -1.556059,-1.27347 z m 19.765173,1.47808 h -1.289204 l -0.345552,-1.63475 h -0.08371 a 7.2115303,7.2115303 0 0 1 -0.58379,0.65318 q -0.565905,0.55589 -1.129663,0.80844 a 4.0121291,4.0121291 0 0 1 -0.829183,0.26185 q -0.402072,0.083 -0.867101,0.10874 a 7.828946,7.828946 0 0 1 -0.436412,0.0122 5.3385356,5.3385356 0 0 1 -1.086738,-0.10373 q -0.663918,-0.13808 -1.17402,-0.46003 a 2.9955037,2.9955037 0 0 1 -0.417095,-0.31693 2.8595721,2.8595721 0 0 1 -0.862808,-1.50813 4.3769982,4.3769982 0 0 1 -0.106599,-0.99659 3.0105277,3.0105277 0 0 1 1.712023,-2.84097 q 1.375056,-0.73117 3.852588,-0.80557 l 1.949546,-0.063 v -0.71257 q 0,-0.82632 -0.217491,-1.38865 a 1.9416759,1.9416759 0 0 0 -0.364153,-0.60811 q -0.581645,-0.64461 -1.860117,-0.64461 a 5.6640561,5.6640561 0 0 0 -1.303513,0.16241 q -0.598099,0.14165 -1.24914,0.40708 a 11.650771,11.650771 0 0 0 -0.696113,0.31121 l -0.534426,-1.33142 q 0.8485,-0.46073 1.860117,-0.72258 a 8.0564526,8.0564526 0 0 1 2.027527,-0.26256 7.3474619,7.3474619 0 0 1 1.118932,0.0794 q 0.575206,0.0894 1.034511,0.27759 a 2.9611631,2.9611631 0 0 1 0.891426,0.55517 q 0.990154,0.91146 0.990154,2.92396 z m 11.245123,-11.09846 -0.534426,1.47808 a 7.7388019,7.7388019 0 0 0 -0.839915,-0.27973 9.2433503,9.2433503 0 0 0 -0.417811,-0.10302 q -0.583075,-0.13021 -1.05025,-0.14881 a 3.8561655,3.8561655 0 0 0 -0.155248,-0.004 q -3.108542,0 -3.456241,3.52277 a 9.612512,9.612512 0 0 0 -0.04364,0.94223 8.4248988,8.4248988 0 0 0 0.08299,1.22696 q 0.183865,1.24341 0.771233,2.0218 a 2.7629891,2.7629891 0 0 0 1.790005,1.06957 4.2088723,4.2088723 0 0 0 0.740469,0.0622 7.2823578,7.2823578 0 0 0 2.008927,-0.29261 8.9915191,8.9915191 0 0 0 0.935782,-0.32552 v 1.54032 q -0.98944,0.51296 -2.420299,0.58522 a 9.5402536,9.5402536 0 0 1 -0.482199,0.0122 6.5018241,6.5018241 0 0 1 -1.581815,-0.18172 4.4091926,4.4091926 0 0 1 -2.280074,-1.35359 q -1.181174,-1.3264 -1.342146,-3.60219 a 10.518961,10.518961 0 0 1 -0.02576,-0.7419 9.5989188,9.5989188 0 0 1 0.14881,-1.74565 q 0.305488,-1.65049 1.239839,-2.70861 a 4.5043447,4.5043447 0 0 1 2.466802,-1.41798 6.8287754,6.8287754 0 0 1 1.489524,-0.15382 7.8504089,7.8504089 0 0 1 1.655504,0.17814 8.6831689,8.6831689 0 0 1 0.482915,0.11733 q 0.492931,0.13665 0.817021,0.30191 z m -27.656362,0.8807 q -1.782135,0 -2.567677,1.02163 -0.691105,0.89786 -0.77481,2.87531 a 13.403573,13.403573 0 0 0 -0.01145,0.56734 11.502677,11.502677 0 0 0 0.05723,1.18904 q 0.124485,1.19906 0.525126,1.9288 a 2.6241957,2.6241957 0 0 0 0.224645,0.34555 2.5240356,2.5240356 0 0 0 1.279903,0.86424 q 0.428542,0.13379 0.950091,0.16741 a 5.593944,5.593944 0 0 0 0.35843,0.0114 3.4676872,3.4676872 0 0 0 0.985146,-0.13236 2.5018573,2.5018573 0 0 0 1.404389,-1.03665 q 0.561612,-0.83419 0.721868,-2.19065 a 9.9680805,9.9680805 0 0 0 0.06439,-1.16758 10.277861,10.277861 0 0 0 -0.06224,-1.17116 q -0.158825,-1.38149 -0.724014,-2.17204 a 2.5369133,2.5369133 0 0 0 -1.61544,-1.02235 4.023576,4.023576 0 0 0 -0.81559,-0.078 z m 14.671315,5.60682 v -1.03809 l -1.73921,0.0737 a 12.77328,12.77328 0 0 0 -1.020918,0.0737 q -1.006609,0.11733 -1.637618,0.39563 a 2.6721295,2.6721295 0 0 0 -0.33339,0.17528 1.8565398,1.8565398 0 0 0 -0.884987,1.34644 2.7479651,2.7479651 0 0 0 -0.03219,0.42997 2.4861178,2.4861178 0 0 0 0.06153,0.5702 q 0.103022,0.43856 0.379893,0.73976 a 1.5496205,1.5496205 0 0 0 0.129493,0.1252 q 0.493646,0.42568 1.326406,0.48363 a 3.9126844,3.9126844 0 0 0 0.271863,0.009 q 1.624741,0 2.551938,-0.89071 0.922189,-0.88571 0.927197,-2.47682 a 5.512385,5.512385 0 0 0 0,-0.0172 z"
     id="back_labelLayer"
     stroke="#777777"
     fill="#777777"
     style="fill:#ff0000;fill-opacity:1;fill-rule:evenodd;stroke:#ff0000;stroke-width:0.178857mm;stroke-linecap:round;stroke-opacity:0.999548"
     vector-effect="non-scaling-stroke" />
  <path
     d="m 156,0 v 39.688 h -3 v 24.375 h 3 v 24.375 h -3 v 24.375 h 3 v 24.375 h -3 v 24.375 h 3 v 24.375 h -3 v 24.375 h 3 V 234.688 250 h 9.813 v -3 h 24.375 v 3 H 200 v -39.687 h 3 v -24.375 h -3 v -24.375 h 3 v -24.375 h -3 v -24.375 h 3 V 88.438 h -3 V 64.063 h 3 V 39.688 h -3 V 15.313 0 h -9.812 V 3 H 165.813 V 0 Z"
     id="right_outsideCutPath"
     stroke="#FF0000"
     stroke-width="0.1"
     style="fill:none;fill-rule:evenodd;stroke:#ff0000;stroke-width:0.1;stroke-linecap:round;stroke-opacity:0.999548"
     vector-effect="non-scaling-stroke" />
  <path
     d="m 184.218,127.598 h -0.81 v -3.462 a 2.291,2.291 0 0 0 -0.027,-0.36 q -0.062,-0.39 -0.271,-0.617 a 0.914,0.914 0 0 0 -0.375,-0.239 q -0.235,-0.083 -0.558,-0.083 a 2.453,2.453 0 0 0 -0.458,0.04 q -0.255,0.048 -0.45,0.156 a 1.135,1.135 0 0 0 -0.325,0.263 1.349,1.349 0 0 0 -0.229,0.405 q -0.138,0.372 -0.156,0.924 a 5.231,5.231 0 0 0 -0.003,0.175 v 2.798 h -0.81 V 120 h 0.81 v 2.3 a 7.291,7.291 0 0 1 -0.005,0.28 q -0.005,0.131 -0.015,0.244 a 3.171,3.171 0 0 1 -0.019,0.164 h 0.049 a 1.619,1.619 0 0 1 0.567,-0.546 1.978,1.978 0 0 1 0.114,-0.062 2.081,2.081 0 0 1 0.683,-0.202 2.631,2.631 0 0 1 0.325,-0.02 3.288,3.288 0 0 1 0.553,0.043 q 0.294,0.051 0.526,0.159 a 1.461,1.461 0 0 1 0.394,0.264 1.411,1.411 0 0 1 0.348,0.547 q 0.142,0.388 0.142,0.935 z m -7.422,-5.352 h 1.851 v 0.513 l -0.991,0.117 q 0.136,0.171 0.244,0.447 0.107,0.276 0.107,0.622 a 1.858,1.858 0 0 1 -0.085,0.576 1.503,1.503 0 0 1 -0.452,0.679 q -0.484,0.422 -1.292,0.464 a 3.521,3.521 0 0 1 -0.182,0.005 2.605,2.605 0 0 1 -0.302,-0.017 2.2,2.2 0 0 1 -0.148,-0.022 1.442,1.442 0 0 0 -0.232,0.15 q -0.12,0.097 -0.19,0.208 a 0.61,0.61 0 0 0 -0.095,0.33 q 0,0.22 0.18,0.325 0.181,0.105 0.621,0.105 h 0.947 a 3.318,3.318 0 0 1 0.504,0.036 q 0.263,0.04 0.476,0.127 a 1.465,1.465 0 0 1 0.355,0.203 1.186,1.186 0 0 1 0.441,0.756 1.781,1.781 0 0 1 0.026,0.309 q 0,0.888 -0.713,1.355 -0.497,0.325 -1.313,0.423 a 6.424,6.424 0 0 1 -0.767,0.043 4.541,4.541 0 0 1 -0.61,-0.038 q -0.618,-0.084 -1.009,-0.353 a 1.292,1.292 0 0 1 -0.416,-0.452 q -0.134,-0.247 -0.15,-0.56 a 1.711,1.711 0 0 1 -0.003,-0.091 1.239,1.239 0 0 1 0.313,-0.845 q 0.312,-0.356 0.879,-0.483 a 0.841,0.841 0 0 1 -0.327,-0.264 0.999,0.999 0 0 1 -0.018,-0.024 0.751,0.751 0 0 1 -0.138,-0.407 0.931,0.931 0 0 1 -10e-4,-0.047 0.927,0.927 0 0 1 0.047,-0.299 0.821,0.821 0 0 1 0.109,-0.214 1.16,1.16 0 0 1 0.154,-0.173 q 0.081,-0.076 0.186,-0.151 a 2.546,2.546 0 0 1 0.154,-0.101 1.421,1.421 0 0 1 -0.618,-0.494 1.761,1.761 0 0 1 -0.059,-0.087 1.676,1.676 0 0 1 -0.257,-0.808 2.045,2.045 0 0 1 -0.004,-0.13 q 0,-0.878 0.527,-1.355 a 1.721,1.721 0 0 1 0.661,-0.364 q 0.263,-0.08 0.578,-0.103 a 3.58,3.58 0 0 1 0.256,-0.009 3.107,3.107 0 0 1 0.411,0.026 2.366,2.366 0 0 1 0.345,0.072 z m 11.548,4.683 v 0.62 a 0.797,0.797 0 0 1 -0.094,0.037 q -0.101,0.034 -0.246,0.06 a 3.033,3.033 0 0 1 -0.048,0.008 q -0.256,0.041 -0.461,0.041 a 2.117,2.117 0 0 1 -0.624,-0.084 q -0.929,-0.286 -0.929,-1.551 v -3.184 h -0.767 v -0.391 l 0.767,-0.337 0.342,-1.142 h 0.468 v 1.24 h 1.553 v 0.63 h -1.553 v 3.149 a 1.632,1.632 0 0 0 0.024,0.287 q 0.028,0.157 0.09,0.282 a 0.786,0.786 0 0 0 0.116,0.174 q 0.229,0.258 0.63,0.258 a 2.662,2.662 0 0 0 0.39,-0.028 2.453,2.453 0 0 0 0.025,-0.003 q 0.2,-0.032 0.317,-0.066 z m -17.607,-4.722 -0.112,0.752 q -0.277,-0.061 -0.499,-0.071 a 1.901,1.901 0 0 0 -0.087,-0.002 q -0.65,0 -1.111,0.527 a 1.851,1.851 0 0 0 -0.447,1.039 2.46,2.46 0 0 0 -0.015,0.275 v 2.871 h -0.81 v -5.352 h 0.669 l 0.092,0.991 h 0.04 a 2.737,2.737 0 0 1 0.306,-0.437 2.091,2.091 0 0 1 0.411,-0.368 q 0.42,-0.284 0.923,-0.284 a 3.721,3.721 0 0 1 0.333,0.015 2.716,2.716 0 0 1 0.307,0.044 z m 1.811,0.039 v 5.352 h -0.81 v -5.352 z m 3.97,5.23 h -0.972 a 1.863,1.863 0 0 0 -0.335,0.028 q -0.317,0.058 -0.524,0.235 -0.308,0.264 -0.308,0.757 a 0.814,0.814 0 0 0 0.054,0.302 q 0.087,0.219 0.313,0.357 0.366,0.225 1.049,0.225 a 5.449,5.449 0 0 0 0.533,-0.024 q 0.533,-0.053 0.868,-0.22 a 1.346,1.346 0 0 0 0.111,-0.061 q 0.49,-0.305 0.49,-0.828 a 1.097,1.097 0 0 0 -0.02,-0.218 q -0.053,-0.263 -0.248,-0.385 a 0.769,0.769 0 0 0 -0.182,-0.08 q -0.29,-0.088 -0.829,-0.088 z m -1.699,-3.516 a 1.582,1.582 0 0 0 0.032,0.332 q 0.07,0.322 0.285,0.518 0.318,0.288 0.884,0.288 0.937,0 1.134,-0.719 a 1.642,1.642 0 0 0 0.053,-0.434 q 0,-0.957 -0.757,-1.154 a 1.763,1.763 0 0 0 -0.445,-0.052 q -0.437,0 -0.72,0.181 a 0.933,0.933 0 0 0 -0.159,0.127 q -0.261,0.261 -0.3,0.736 a 2.132,2.132 0 0 0 -0.007,0.177 z m -3.013,-3.572 a 0.379,0.379 0 0 0 -0.084,0.119 q -0.053,0.116 -0.053,0.289 0,0.138 0.035,0.24 a 0.418,0.418 0 0 0 0.102,0.168 q 0.137,0.134 0.342,0.134 a 0.473,0.473 0 0 0 0.337,-0.134 0.396,0.396 0 0 0 0.077,-0.103 q 0.035,-0.066 0.051,-0.151 a 0.839,0.839 0 0 0 0.013,-0.154 0.927,0.927 0 0 0 -0.004,-0.088 q -0.019,-0.208 -0.137,-0.317 a 0.478,0.478 0 0 0 -0.337,-0.132 0.619,0.619 0 0 0 -0.041,0.001 0.469,0.469 0 0 0 -0.301,0.128 z"
     id="right_labelLayer"
     stroke="#777777"
     fill="#777777"
     style="fill:#ff0000;fill-opacity:1;fill-rule:evenodd;stroke:#ff0000;stroke-width:0.25mm;stroke-linecap:round;stroke-opacity:0.999548"
     vector-effect="non-scaling-stroke" />
  <path
     d="m 209,403 v 9.813 h -3 v 24.375 h 3 V 447 h 35.438 v 3 h 24.375 v -3 h 24.375 v 3 h 24.375 v -3 H 341.938 353 v -9.812 h 3 v -24.375 h -3 V 403 h -35.437 v -3 h -24.375 v 3 h -24.375 v -3 h -24.375 v 3 h -24.375 z"
     id="bottom_outsideCutPath"
     stroke="#FF0000"
     stroke-width="0.1"
     style="fill:none;fill-rule:evenodd;stroke:#ff0000;stroke-width:0.1;stroke-linecap:round;stroke-opacity:0.999548"
     vector-effect="non-scaling-stroke" />
  <path
     d="m 297.45,428.75 h -0.81 v -3.482 q 0,-0.4 -0.108,-0.675 a 0.98,0.98 0 0 0 -0.166,-0.284 0.853,0.853 0 0 0 -0.396,-0.256 q -0.197,-0.064 -0.453,-0.064 a 2.086,2.086 0 0 0 -0.425,0.04 q -0.442,0.093 -0.694,0.395 -0.359,0.432 -0.361,1.329 a 4.551,4.551 0 0 0 0,0.009 v 2.988 h -0.81 v -3.482 q 0,-0.4 -0.108,-0.675 a 0.98,0.98 0 0 0 -0.166,-0.284 0.85,0.85 0 0 0 -0.391,-0.254 q -0.141,-0.046 -0.313,-0.06 a 1.898,1.898 0 0 0 -0.15,-0.006 2.013,2.013 0 0 0 -0.417,0.04 q -0.45,0.096 -0.699,0.417 -0.321,0.413 -0.351,1.306 a 5.643,5.643 0 0 0 -0.003,0.19 v 2.808 h -0.811 v -5.352 h 0.66 l 0.131,0.733 h 0.039 a 1.593,1.593 0 0 1 0.647,-0.611 1.924,1.924 0 0 1 0.76,-0.213 2.324,2.324 0 0 1 0.175,-0.006 2.654,2.654 0 0 1 0.598,0.062 q 0.758,0.175 1.043,0.846 h 0.039 a 1.692,1.692 0 0 1 0.638,-0.633 2.033,2.033 0 0 1 0.055,-0.031 2.051,2.051 0 0 1 0.753,-0.229 2.558,2.558 0 0 1 0.283,-0.015 q 0.612,0 1.017,0.212 a 1.336,1.336 0 0 1 0.343,0.254 q 0.328,0.339 0.418,0.975 a 3.718,3.718 0 0 1 0.033,0.517 z m -32.09,-0.689 h -0.058 l -0.171,0.689 h -0.581 v -7.598 h 0.81 v 1.846 q 0,0.6 -0.036,1.081 a 10.075,10.075 0 0 1 -0.003,0.032 h 0.039 a 1.843,1.843 0 0 1 1.345,-0.781 2.768,2.768 0 0 1 0.335,-0.02 2.477,2.477 0 0 1 0.697,0.093 1.854,1.854 0 0 1 0.941,0.628 q 0.467,0.576 0.561,1.537 a 5.203,5.203 0 0 1 0.023,0.501 4.752,4.752 0 0 1 -0.063,0.8 q -0.073,0.426 -0.23,0.768 a 2.278,2.278 0 0 1 -0.296,0.481 1.919,1.919 0 0 1 -1.363,0.717 2.749,2.749 0 0 1 -0.27,0.013 q -0.522,0 -0.955,-0.193 a 1.795,1.795 0 0 1 -0.725,-0.594 z m 13.819,0.02 v 0.62 a 0.797,0.797 0 0 1 -0.095,0.038 q -0.101,0.033 -0.245,0.059 a 3.033,3.033 0 0 1 -0.048,0.008 q -0.257,0.042 -0.462,0.042 a 2.117,2.117 0 0 1 -0.624,-0.084 q -0.929,-0.287 -0.929,-1.552 v -3.184 h -0.766 v -0.39 l 0.766,-0.337 0.342,-1.143 h 0.469 v 1.24 h 1.553 v 0.63 h -1.553 v 3.15 a 1.632,1.632 0 0 0 0.023,0.286 q 0.029,0.158 0.09,0.282 a 0.786,0.786 0 0 0 0.116,0.174 q 0.23,0.259 0.63,0.259 a 2.662,2.662 0 0 0 0.39,-0.028 2.453,2.453 0 0 0 0.025,-0.004 q 0.2,-0.032 0.318,-0.066 z m 3.53,0 v 0.62 a 0.797,0.797 0 0 1 -0.095,0.038 q -0.1,0.033 -0.245,0.059 a 3.033,3.033 0 0 1 -0.048,0.008 q -0.257,0.042 -0.462,0.042 a 2.117,2.117 0 0 1 -0.624,-0.084 q -0.928,-0.287 -0.928,-1.552 v -3.184 h -0.767 v -0.39 l 0.767,-0.337 0.341,-1.143 h 0.469 v 1.24 h 1.553 v 0.63 h -1.553 v 3.15 a 1.632,1.632 0 0 0 0.024,0.286 q 0.028,0.158 0.089,0.282 a 0.786,0.786 0 0 0 0.117,0.174 q 0.229,0.259 0.63,0.259 a 2.662,2.662 0 0 0 0.389,-0.028 2.453,2.453 0 0 0 0.026,-0.004 q 0.2,-0.032 0.317,-0.066 z m -7.487,-1.197 a 4.187,4.187 0 0 0 0.075,-0.815 q 0,-0.52 -0.11,-0.952 a 2.524,2.524 0 0 0 -0.552,-1.069 2.122,2.122 0 0 0 -0.985,-0.636 2.724,2.724 0 0 0 -0.799,-0.111 3.148,3.148 0 0 0 -0.566,0.048 2.144,2.144 0 0 0 -1.251,0.682 2.239,2.239 0 0 0 -0.275,0.381 q -0.379,0.661 -0.379,1.657 a 4.055,4.055 0 0 0 0.051,0.657 2.998,2.998 0 0 0 0.252,0.818 2.664,2.664 0 0 0 0.059,0.115 2.194,2.194 0 0 0 0.8,0.852 q 0.557,0.337 1.274,0.337 a 3.147,3.147 0 0 0 0.55,-0.046 2.161,2.161 0 0 0 1.272,-0.689 2.261,2.261 0 0 0 0.269,-0.37 q 0.22,-0.376 0.315,-0.859 z m 13.101,0 a 4.187,4.187 0 0 0 0.074,-0.815 q 0,-0.52 -0.11,-0.952 a 2.524,2.524 0 0 0 -0.551,-1.069 2.122,2.122 0 0 0 -0.985,-0.636 2.724,2.724 0 0 0 -0.8,-0.111 3.148,3.148 0 0 0 -0.565,0.048 2.144,2.144 0 0 0 -1.251,0.682 2.239,2.239 0 0 0 -0.275,0.381 q -0.38,0.661 -0.38,1.657 a 4.055,4.055 0 0 0 0.051,0.657 2.998,2.998 0 0 0 0.252,0.818 2.664,2.664 0 0 0 0.059,0.115 2.194,2.194 0 0 0 0.801,0.852 q 0.556,0.337 1.274,0.337 a 3.147,3.147 0 0 0 0.55,-0.046 2.161,2.161 0 0 0 1.271,-0.689 2.261,2.261 0 0 0 0.269,-0.37 q 0.22,-0.376 0.316,-0.859 z m -17.103,-0.815 q 0,1.026 0.41,1.563 a 1.328,1.328 0 0 0 0.865,0.509 2.013,2.013 0 0 0 0.341,0.028 1.883,1.883 0 0 0 0.497,-0.062 1.31,1.31 0 0 0 0.711,-0.473 1.74,1.74 0 0 0 0.271,-0.528 q 0.08,-0.243 0.115,-0.541 a 4.27,4.27 0 0 0 0.027,-0.496 4.044,4.044 0 0 0 -0.038,-0.576 q -0.043,-0.293 -0.132,-0.531 a 1.669,1.669 0 0 0 -0.243,-0.443 1.333,1.333 0 0 0 -0.829,-0.495 2.044,2.044 0 0 0 -0.389,-0.035 1.929,1.929 0 0 0 -0.48,0.056 1.291,1.291 0 0 0 -0.721,0.467 q -0.405,0.522 -0.405,1.557 z m 13.1,0 q 0,1.026 0.41,1.563 a 1.328,1.328 0 0 0 0.866,0.509 2.013,2.013 0 0 0 0.34,0.028 1.883,1.883 0 0 0 0.497,-0.062 1.31,1.31 0 0 0 0.712,-0.473 1.74,1.74 0 0 0 0.271,-0.528 q 0.08,-0.243 0.114,-0.541 a 4.27,4.27 0 0 0 0.028,-0.496 4.044,4.044 0 0 0 -0.039,-0.576 q -0.042,-0.293 -0.131,-0.531 a 1.669,1.669 0 0 0 -0.243,-0.443 1.333,1.333 0 0 0 -0.829,-0.495 2.044,2.044 0 0 0 -0.389,-0.035 1.929,1.929 0 0 0 -0.481,0.056 1.291,1.291 0 0 0 -0.72,0.467 q -0.406,0.522 -0.406,1.557 z m -18.28,-1.879 a 1.078,1.078 0 0 0 -0.313,0.275 q -0.367,0.476 -0.367,1.604 a 5.359,5.359 0 0 0 0.027,0.554 q 0.058,0.559 0.245,0.899 a 1.222,1.222 0 0 0 0.104,0.161 1.176,1.176 0 0 0 0.597,0.403 q 0.199,0.062 0.442,0.078 a 2.606,2.606 0 0 0 0.167,0.005 1.616,1.616 0 0 0 0.459,-0.062 1.166,1.166 0 0 0 0.655,-0.483 q 0.366,-0.544 0.366,-1.565 a 4.789,4.789 0 0 0 -0.029,-0.545 q -0.074,-0.644 -0.337,-1.012 -0.367,-0.513 -1.133,-0.513 -0.54,0 -0.883,0.201 z"
     id="bottom_labelLayer"
     stroke="#777777"
     fill="#777777"
     style="fill:#ff0000;fill-opacity:1;fill-rule:evenodd;stroke:#ff0000;stroke-width:0.25mm;stroke-linecap:round;stroke-opacity:0.999548"
     vector-effect="non-scaling-stroke" />
  <ellipse
     style="fill:none;fill-opacity:1;fill-rule:evenodd;stroke:#ff0000;stroke-width:0.235987;stroke-linecap:round;stroke-miterlimit:4;stroke-dasharray:none;stroke-opacity:0.999548"
     id="path3846"
     cx="177.89026"
     cy="205.08087"
     rx="10.896993"
     ry="10.611881" />
  <rect
     style="fill:none;fill-opacity:1;fill-rule:evenodd;stroke:#ff0000;stroke-width:0.264848;stroke-linecap:round;stroke-miterlimit:4;stroke-dasharray:none;stroke-opacity:0.999548"
     id="rect3848"
     width="14.763278"
     height="24.25386"
     x="169.45341"
     y="144.59074" />
  <rect
     style="fill:none;fill-rule:evenodd;stroke:#ff0000;stroke-width:0.162;stroke-linecap:round;stroke-opacity:1"
     id="rect396"
     width="3"
     height="24.389999"
     x="26.332216"
     y="111.19479" />
  <rect
     style="fill:none;fill-rule:evenodd;stroke:#ff0000;stroke-width:0.162;stroke-linecap:round;stroke-opacity:1"
     id="rect398"
     width="3"
     height="24.389999"
     x="26.332216"
     y="62.414757" />
  <rect
     style="fill:none;fill-rule:evenodd;stroke:#ff0000;stroke-width:0.162;stroke-linecap:round;stroke-opacity:1"
     id="rect402"
     width="3"
     height="24.389999"
     x="26.332216"
     y="159.97479" />
  <rect
     style="fill:none;fill-rule:evenodd;stroke:#ff0000;stroke-width:0.162;stroke-linecap:round;stroke-opacity:1"
     id="rect396-3"
     width="3"
     height="24.389999"
     x="123.33222"
     y="110.13646" />
  <rect
     style="fill:none;fill-rule:evenodd;stroke:#ff0000;stroke-width:0.162;stroke-linecap:round;stroke-opacity:1"
     id="rect398-6"
     width="3"
     height="24.389999"
     x="123.33222"
     y="61.356438" />
  <rect
     style="fill:none;fill-rule:evenodd;stroke:#ff0000;stroke-width:0.162;stroke-linecap:round;stroke-opacity:1"
     id="rect402-0"
     width="3"
     height="24.389999"
     x="123.33222"
     y="158.91647" />
  <rect
     style="fill:none;fill-rule:evenodd;stroke:#ff0000;stroke-width:0.162;stroke-linecap:round;stroke-opacity:1"
     id="rect1255"
     width="24.389999"
     height="3"
     x="64.137215"
     y="24.977262" />
  <rect
     style="fill:none;fill-rule:evenodd;stroke:#ff0000;stroke-width:0.162;stroke-linecap:round;stroke-opacity:1"
     id="rect1257"
     width="24.389999"
     height="3"
     x="64.137215"
     y="221.97728" />
  <path
     d="m 0.24253535,252.6258 v 39.688 H 3.2425355 v 24.375 H 0.24253535 v 24.375 H 3.2425355 v 24.375 H 0.24253535 v 24.375 H 3.2425355 v 24.375 H 0.24253535 v 24.375 H 3.2425355 v 24.375 H 0.24253535 v 24.375 15.312 H 38.680539 v -3 h 24.375 v 3 h 24.375 v -3 h 24.375011 v 3 h 24.375 14.062 v -39.687 h -3 v -24.375 h 3 v -24.375 h -3 v -24.375 h 3 v -24.375 h -3 v -24.375 h 3 v -24.375 h -3 v -24.375 h 3 v -24.375 -15.313 h -38.437 v 3 H 87.430539 v -3 h -24.375 v 3 h -24.375 v -3 H 14.305537 Z"
     id="back_outsideCutPath-6"
     stroke="#FF0000"
     stroke-width="0.1"
     style="fill:none;fill-rule:evenodd;stroke:#ff0000;stroke-width:0.1;stroke-linecap:round;stroke-opacity:0.999548"
     vector-effect="non-scaling-stroke" />
  <path
     d="m 74.022881,384.49511 -3e-5,-3.1e-4 a 5.512385,5.512385 0 0 1 0,0.0172 q -0.005,1.59111 -0.9272,2.47682 -0.9272,0.89071 -2.55194,0.89071 a 3.9126844,3.9126844 0 0 1 -0.27186,-0.009 q -0.83276,-0.0579 -1.32641,-0.48363 a 1.5496205,1.5496205 0 0 1 -0.12949,-0.1252 q -0.27687,-0.3012 -0.37989,-0.73976 a 2.4861178,2.4861178 0 0 1 -0.0615,-0.5702 2.7479651,2.7479651 0 0 1 0.0322,-0.42997 1.8565398,1.8565398 0 0 1 0.88498,-1.34644 2.6721295,2.6721295 0 0 1 0.33339,-0.17528 q 0.63101,-0.2783 1.63762,-0.39563 a 12.77328,12.77328 0 0 1 1.02092,-0.0737 l 1.73921,-0.0737 z m -14.67132,-5.60682 7e-5,-7e-5 a 4.023576,4.023576 0 0 1 0.81559,0.078 2.5369133,2.5369133 0 0 1 1.61544,1.02235 q 0.56519,0.79055 0.72401,2.17204 a 10.277861,10.277861 0 0 1 0.0622,1.17116 9.9680805,9.9680805 0 0 1 -0.0644,1.16758 q -0.16025,1.35646 -0.72186,2.19065 a 2.5018573,2.5018573 0 0 1 -1.40439,1.03665 3.4676872,3.4676872 0 0 1 -0.98515,0.13236 5.593944,5.593944 0 0 1 -0.35843,-0.0114 q -0.52155,-0.0336 -0.95009,-0.16741 a 2.5240356,2.5240356 0 0 1 -1.2799,-0.86424 2.6241957,2.6241957 0 0 1 -0.22465,-0.34555 q -0.40064,-0.72974 -0.52512,-1.9288 a 11.502677,11.502677 0 0 1 -0.0572,-1.18904 13.403573,13.403573 0 0 1 0.0114,-0.56734 q 0.0837,-1.97745 0.77481,-2.87531 0.78554,-1.02163 2.56767,-1.02163 z m 27.65637,-0.8807 v -4.2e-4 q -0.32409,-0.16526 -0.81702,-0.30191 a 8.6831689,8.6831689 0 0 0 -0.48291,-0.11733 7.8504089,7.8504089 0 0 0 -1.65551,-0.17814 6.8287754,6.8287754 0 0 0 -1.48952,0.15382 4.5043447,4.5043447 0 0 0 -2.4668,1.41798 q -0.93435,1.05812 -1.23984,2.70861 a 9.5989188,9.5989188 0 0 0 -0.14881,1.74565 10.518961,10.518961 0 0 0 0.0258,0.7419 q 0.16097,2.27579 1.34214,3.60219 a 4.4091926,4.4091926 0 0 0 2.28008,1.35359 6.5018241,6.5018241 0 0 0 1.58181,0.18172 9.5402536,9.5402536 0 0 0 0.4822,-0.0122 q 1.43086,-0.0723 2.4203,-0.58522 v -1.54032 a 8.9915191,8.9915191 0 0 1 -0.93578,0.32552 7.2823578,7.2823578 0 0 1 -2.00893,0.29261 4.2088723,4.2088723 0 0 1 -0.74047,-0.0622 2.7629891,2.7629891 0 0 1 -1.79,-1.06957 q -0.58737,-0.77839 -0.77124,-2.0218 a 8.4248988,8.4248988 0 0 1 -0.083,-1.22696 9.612512,9.612512 0 0 1 0.0436,-0.94223 q 0.3477,-3.52277 3.45625,-3.52277 a 3.8561655,3.8561655 0 0 1 0.15524,0.004 q 0.46718,0.0186 1.05025,0.14881 a 9.2433503,9.2433503 0 0 1 0.41781,0.10302 7.7388019,7.7388019 0 0 1 0.83992,0.27973 z m -11.24513,11.09846 1e-5,-7.83897 q 0,-2.0125 -0.99015,-2.92396 a 2.9611631,2.9611631 0 0 0 -0.89143,-0.55517 q -0.45931,-0.18819 -1.03451,-0.27759 a 7.3474619,7.3474619 0 0 0 -1.11893,-0.0794 8.0564526,8.0564526 0 0 0 -2.02753,0.26256 q -1.01162,0.26185 -1.86012,0.72258 l 0.53443,1.33142 a 11.650771,11.650771 0 0 1 0.69611,-0.31121 q 0.65104,-0.26543 1.24914,-0.40708 a 5.6640561,5.6640561 0 0 1 1.30351,-0.16241 q 1.27848,0 1.86012,0.64461 a 1.9416759,1.9416759 0 0 1 0.36415,0.60811 q 0.21749,0.56233 0.21749,1.38865 v 0.71257 l -1.94954,0.063 q -2.47753,0.0744 -3.85259,0.80557 a 3.0105277,3.0105277 0 0 0 -1.71202,2.84097 4.3769982,4.3769982 0 0 0 0.1066,0.99659 2.8595721,2.8595721 0 0 0 0.8628,1.50813 2.9955037,2.9955037 0 0 0 0.4171,0.31693 q 0.5101,0.32195 1.17402,0.46003 a 5.3385356,5.3385356 0 0 0 1.08674,0.10373 7.828946,7.828946 0 0 0 0.43641,-0.0122 q 0.46503,-0.0257 0.8671,-0.10874 a 4.0121291,4.0121291 0 0 0 0.82918,-0.26185 q 0.56376,-0.25255 1.12967,-0.80844 a 7.2115303,7.2115303 0 0 0 0.58379,-0.65318 h 0.0837 l 0.34555,1.63475 z m -19.76517,-1.47808 a 3.8533038,3.8533038 0 0 0 1.55606,1.27347 4.5916271,4.5916271 0 0 0 0.7233,0.25255 5.2770086,5.2770086 0 0 0 1.32569,0.16168 5.9001478,5.9001478 0 0 0 0.57878,-0.0279 4.1187281,4.1187281 0 0 0 2.92682,-1.53889 q 0.84993,-1.05454 1.12752,-2.68 a 10.19988,10.19988 0 0 0 0.13522,-1.71631 q 0,-2.82953 -1.252,-4.37557 a 3.9799348,3.9799348 0 0 0 -2.01966,-1.34572 5.3170727,5.3170727 0 0 0 -1.49668,-0.20032 q -2.38954,0 -3.60505,1.71917 h -0.0837 q 0.0837,-1.05883 0.0837,-2.38953 v -3.96133 h -1.73993 v 16.30678 h 1.24771 l 0.3663,-1.47808 z m 35.202,-4.40132 -1e-4,-4e-5 a 72.357833,72.357833 0 0 0 0.003,-0.0436 q 0.0608,-0.87354 0.0758,-1.41011 a 11.592821,11.592821 0 0 0 0.005,-0.32767 v -8.64596 h -1.71846 v 16.30678 h 1.71846 v -4.29687 l 1.30995,-1.13181 4.05577,5.42868 h 2.10695 l -4.97797,-6.59197 4.65316,-4.89425 h -2.06474 l -3.71021,3.92986 q -0.92219,1.03808 -1.37291,1.67696 z"
     id="back_labelLayer-1"
     stroke="#777777"
     fill="#777777"
     style="fill:#ff0000;fill-opacity:1;fill-rule:evenodd;stroke:#ff0000;stroke-width:0.178857mm;stroke-linecap:round;stroke-opacity:0.999548"
     vector-effect="non-scaling-stroke" />
  <rect
     style="fill:none;fill-rule:evenodd;stroke:#ff0000;stroke-width:0.162;stroke-linecap:round;stroke-opacity:0.99737638"
     id="rect396-8"
     width="3"
     height="24.389999"
     x="24.458082"
     y="369.11227" />
  <path
     id="rect398-7"
     style="fill:none;fill-rule:evenodd;stroke:#ff0000;stroke-width:0.612283;stroke-linecap:round;stroke-opacity:0.997376"
     d="m 459.05469,1579.4355 h 11.33789 v 92.1817 h -11.33789 z m -366.615237,0 H 103.7793 v 92.1817 H 92.439453 Z M 459.05469,1395.0703 h 11.33789 v 92.1817 H 459.05469 Z M 92.439453,1210.7051 H 103.7793 v 92.1816 H 92.439453 Z M 235.32422,1063.209 h 92.18359 v 11.1914 h 131.50781 v 136.3047 h 11.37696 v 92.1816 h -11.37696 v 504.9571 H 327.50781 v 11.2695 h -92.18359 v -11.2695 H 103.82227 v -733.4434 h 131.50195 z"
     transform="scale(0.26458333)" />
</svg>
