<?xml version="1.0" encoding="UTF-8" standalone="no"?>
<svg
   xmlns:dc="http://purl.org/dc/elements/1.1/"
   xmlns:cc="http://creativecommons.org/ns#"
   xmlns:rdf="http://www.w3.org/1999/02/22-rdf-syntax-ns#"
   xmlns:svg="http://www.w3.org/2000/svg"
   xmlns="http://www.w3.org/2000/svg"
   xmlns:sodipodi="http://sodipodi.sourceforge.net/DTD/sodipodi-0.dtd"
   xmlns:inkscape="http://www.inkscape.org/namespaces/inkscape"
   width="256mm"
   height="403mm"
   viewBox="0 0 256 403"
   version="1.1"
   preserveAspectRatio="xMidYMid meet"
   id="svg2621"
   sodipodi:docname="caja pequeña.svg"
   inkscape:version="1.0.2 (394de47547, 2021-03-26)">
  <metadata
     id="metadata2627">
    <rdf:RDF>
      <cc:Work
         rdf:about="">
        <dc:format>image/svg+xml</dc:format>
        <dc:type
           rdf:resource="http://purl.org/dc/dcmitype/StillImage" />
        <dc:title></dc:title>
      </cc:Work>
    </rdf:RDF>
  </metadata>
  <defs
     id="defs2625" />
  <sodipodi:namedview
     pagecolor="#ffffff"
     bordercolor="#666666"
     borderopacity="1"
     objecttolerance="10"
     gridtolerance="10"
     guidetolerance="10"
     inkscape:pageopacity="0"
     inkscape:pageshadow="2"
     inkscape:window-width="1853"
     inkscape:window-height="1025"
     id="namedview2623"
     showgrid="false"
     units="mm"
     inkscape:zoom="0.55930969"
     inkscape:cx="689.29558"
     inkscape:cy="755.22044"
     inkscape:window-x="67"
     inkscape:window-y="27"
     inkscape:window-maximized="1"
     inkscape:current-layer="svgGroup"
     inkscape:document-rotation="0" />
  <g
     id="svgGroup"
     stroke-linecap="round"
     fill-rule="evenodd"
     font-size="9pt"
     stroke="#000"
     stroke-width="0.25mm"
     fill="none"
     style="stroke:#000;stroke-width:0.25mm;fill:none">
    <path
       d="M 0 203 L 0 242.025 L 3 242.025 L 3 266.415 L 0 266.415 L 0 290.805 L 3 290.805 L 3 315.195 L 0 315.195 L 0 339.585 L 3 339.585 L 3 363.975 L 0 363.975 L 0 388.365 L 0 403 L 37.805 403 L 37.805 400 L 62.195 400 L 62.195 403 L 86.585 403 L 100 403 L 100 363.975 L 97 363.975 L 97 339.585 L 100 339.585 L 100 315.195 L 97 315.195 L 97 290.805 L 100 290.805 L 100 266.415 L 97 266.415 L 97 242.025 L 100 242.025 L 100 217.635 L 100 203 L 62.195 203 L 62.195 206 L 37.805 206 L 37.805 203 L 13.415 203 L 0 203 Z"
       id="front_outsideCutPath"
       stroke="#FF0000"
       stroke-width="0.1"
       style="stroke:#ff0001;stroke-width:0.1;fill:none;fill-opacity:1;stroke-opacity:1"
       vector-effect="non-scaling-stroke" />
    <path
       d="M 106 203 L 106 242.025 L 103 242.025 L 103 266.415 L 106 266.415 L 106 290.805 L 103 290.805 L 103 315.195 L 106 315.195 L 106 339.585 L 103 339.585 L 103 363.975 L 106 363.975 L 106 388.365 L 106 403 L 115.805 403 L 115.805 400 L 140.195 400 L 140.195 403 L 150 403 L 150 363.975 L 153 363.975 L 153 339.585 L 150 339.585 L 150 315.195 L 153 315.195 L 153 290.805 L 150 290.805 L 150 266.415 L 153 266.415 L 153 242.025 L 150 242.025 L 150 217.635 L 150 203 L 140.195 203 L 140.195 206 L 115.805 206 L 115.805 203 L 106 203 Z"
       id="left_outsideCutPath"
       stroke="#FF0000"
       stroke-width="0.1"
       style="stroke:#ff0001;stroke-width:0.1;fill:none;fill-opacity:1;stroke-opacity:1"
       vector-effect="non-scaling-stroke" />
    <path
       d="m 131.06304,285.95752 v 0.63 h -1.362 v 4.722 h -0.811 v -4.722 h -0.957 v -0.366 l 0.957,-0.293 v -0.298 a 3.285,3.285 0 0 1 0.077,-0.744 q 0.287,-1.229 1.647,-1.229 a 2.61,2.61 0 0 1 0.369,0.029 q 0.18,0.025 0.38,0.075 a 5.247,5.247 0 0 1 0.247,0.067 l -0.21,0.65 q -0.333,-0.108 -0.597,-0.139 a 1.743,1.743 0 0 0 -0.204,-0.013 1.093,1.093 0 0 0 -0.263,0.03 0.702,0.702 0 0 0 -0.415,0.276 q -0.22,0.305 -0.22,0.979 v 0.346 z m -3.794,2.31 v 0.512 h -3.686 q 0.016,0.644 0.232,1.076 a 1.522,1.522 0 0 0 0.244,0.355 1.473,1.473 0 0 0 0.773,0.436 2.232,2.232 0 0 0 0.499,0.052 4.281,4.281 0 0 0 1.603,-0.317 4.905,4.905 0 0 0 0.106,-0.044 v 0.723 a 4.866,4.866 0 0 1 -0.444,0.167 3.721,3.721 0 0 1 -0.369,0.099 q -0.384,0.08 -0.926,0.08 a 3.15,3.15 0 0 1 -0.788,-0.093 2.23,2.23 0 0 1 -1.084,-0.629 q -0.647,-0.681 -0.684,-1.861 a 4.63,4.63 0 0 1 -0.002,-0.146 4.256,4.256 0 0 1 0.079,-0.844 q 0.103,-0.513 0.344,-0.912 a 2.4,2.4 0 0 1 0.214,-0.3 2.077,2.077 0 0 1 1.514,-0.755 2.865,2.865 0 0 1 0.197,-0.006 2.469,2.469 0 0 1 0.696,0.093 1.879,1.879 0 0 1 0.896,0.568 2.266,2.266 0 0 1 0.514,1.036 3.299,3.299 0 0 1 0.072,0.71 z m 7.232,2.373 v 0.62 a 0.797,0.797 0 0 1 -0.095,0.037 q -0.101,0.034 -0.245,0.06 a 3.033,3.033 0 0 1 -0.049,0.008 q -0.256,0.041 -0.461,0.041 a 2.117,2.117 0 0 1 -0.624,-0.084 q -0.929,-0.286 -0.929,-1.551 v -3.184 h -0.766 v -0.391 l 0.766,-0.336 0.342,-1.143 h 0.469 v 1.24 h 1.553 v 0.63 h -1.553 v 3.149 a 1.632,1.632 0 0 0 0.023,0.287 q 0.028,0.157 0.09,0.282 a 0.786,0.786 0 0 0 0.116,0.174 q 0.23,0.258 0.63,0.258 a 2.662,2.662 0 0 0 0.39,-0.027 2.453,2.453 0 0 0 0.025,-0.004 q 0.2,-0.032 0.318,-0.066 z m -13.179,-6.929 v 7.598 h -0.811 v -7.598 z m 2.28,4.409 h 2.798 q 0,-0.518 -0.156,-0.873 a 1.254,1.254 0 0 0 -0.186,-0.301 1.11,1.11 0 0 0 -0.668,-0.381 1.666,1.666 0 0 0 -0.308,-0.027 q -0.645,0 -1.028,0.42 a 1.601,1.601 0 0 0 -0.319,0.537 q -0.101,0.277 -0.133,0.625 z"
       id="left_labelLayer"
       stroke="#777777"
       fill="#777777"
       style="fill:none;fill-opacity:1;stroke:#ff0001;stroke-opacity:1"
       vector-effect="non-scaling-stroke" />
    <path
       d="M 159 356 L 159 365.805 L 156 365.805 L 156 390.195 L 159 390.195 L 159 400 L 193.805 400 L 193.805 403 L 218.195 403 L 218.195 400 L 242.585 400 L 253 400 L 253 390.195 L 256 390.195 L 256 365.805 L 253 365.805 L 253 356 L 218.195 356 L 218.195 353 L 193.805 353 L 193.805 356 L 169.415 356 L 159 356 Z"
       id="top_outsideCutPath"
       stroke="#FF0000"
       stroke-width="0.1"
       style="stroke:#ff0001;stroke-width:0.1;fill:none;fill-opacity:1;stroke-opacity:1"
       vector-effect="non-scaling-stroke" />
    <path
       d="M 209.594 379.406 L 209.535 379.406 A 7.671 7.671 0 0 1 209.585 379.973 A 6.428 6.428 0 0 1 209.594 380.295 L 209.594 382.497 L 208.783 382.497 L 208.783 374.743 L 209.442 374.743 L 209.555 375.476 L 209.594 375.476 A 2.182 2.182 0 0 1 209.909 375.117 A 1.687 1.687 0 0 1 210.321 374.841 A 2.03 2.03 0 0 1 210.903 374.671 A 2.627 2.627 0 0 1 211.273 374.646 A 2.485 2.485 0 0 1 211.975 374.739 A 1.836 1.836 0 0 1 212.916 375.373 Q 213.495 376.101 213.495 377.414 A 4.752 4.752 0 0 1 213.432 378.214 Q 213.359 378.64 213.202 378.982 A 2.278 2.278 0 0 1 212.907 379.462 A 1.919 1.919 0 0 1 211.543 380.18 A 2.749 2.749 0 0 1 211.273 380.192 Q 210.751 380.192 210.319 380 A 1.795 1.795 0 0 1 209.594 379.406 Z M 201.674 379.426 L 201.674 380.046 A 0.797 0.797 0 0 1 201.579 380.083 Q 201.478 380.117 201.334 380.143 A 3.033 3.033 0 0 1 201.286 380.151 Q 201.029 380.192 200.824 380.192 A 2.117 2.117 0 0 1 200.2 380.108 Q 199.271 379.822 199.271 378.557 L 199.271 375.373 L 198.505 375.373 L 198.505 374.982 L 199.271 374.646 L 199.613 373.503 L 200.082 373.503 L 200.082 374.743 L 201.635 374.743 L 201.635 375.373 L 200.082 375.373 L 200.082 378.522 A 1.632 1.632 0 0 0 200.106 378.809 Q 200.134 378.966 200.195 379.091 A 0.786 0.786 0 0 0 200.311 379.265 Q 200.541 379.523 200.941 379.523 A 2.662 2.662 0 0 0 201.331 379.496 A 2.453 2.453 0 0 0 201.356 379.492 Q 201.557 379.46 201.674 379.426 Z M 207.288 378.229 A 4.187 4.187 0 0 0 207.362 377.414 Q 207.362 376.894 207.252 376.461 A 2.524 2.524 0 0 0 206.701 375.393 A 2.122 2.122 0 0 0 205.716 374.757 A 2.724 2.724 0 0 0 204.916 374.646 A 3.148 3.148 0 0 0 204.351 374.694 A 2.144 2.144 0 0 0 203.1 375.375 A 2.239 2.239 0 0 0 202.825 375.757 Q 202.445 376.418 202.445 377.414 A 4.055 4.055 0 0 0 202.496 378.071 A 2.998 2.998 0 0 0 202.748 378.889 A 2.664 2.664 0 0 0 202.807 379.004 A 2.194 2.194 0 0 0 203.607 379.855 Q 204.164 380.192 204.882 380.192 A 3.147 3.147 0 0 0 205.431 380.146 A 2.161 2.161 0 0 0 206.703 379.458 A 2.261 2.261 0 0 0 206.972 379.088 Q 207.192 378.712 207.288 378.229 Z M 203.285 377.414 Q 203.285 378.439 203.695 378.977 A 1.328 1.328 0 0 0 204.56 379.486 A 2.013 2.013 0 0 0 204.901 379.514 A 1.883 1.883 0 0 0 205.398 379.452 A 1.31 1.31 0 0 0 206.11 378.979 A 1.74 1.74 0 0 0 206.381 378.451 Q 206.46 378.207 206.495 377.91 A 4.27 4.27 0 0 0 206.522 377.414 A 4.044 4.044 0 0 0 206.484 376.838 Q 206.442 376.544 206.353 376.307 A 1.669 1.669 0 0 0 206.11 375.864 A 1.333 1.333 0 0 0 205.281 375.369 A 2.044 2.044 0 0 0 204.892 375.334 A 1.929 1.929 0 0 0 204.411 375.39 A 1.291 1.291 0 0 0 203.69 375.856 Q 203.285 376.379 203.285 377.414 Z M 209.594 377.233 L 209.594 377.414 A 5.359 5.359 0 0 0 209.62 377.968 Q 209.679 378.527 209.865 378.867 A 1.222 1.222 0 0 0 209.97 379.028 A 1.176 1.176 0 0 0 210.566 379.43 Q 210.766 379.493 211.009 379.508 A 2.606 2.606 0 0 0 211.176 379.514 A 1.366 1.366 0 0 0 211.707 379.414 Q 212.035 379.277 212.262 378.952 A 1.96 1.96 0 0 0 212.531 378.38 Q 212.609 378.117 212.638 377.802 A 4.318 4.318 0 0 0 212.655 377.404 Q 212.655 376.747 212.486 376.291 A 1.718 1.718 0 0 0 212.262 375.869 A 1.261 1.261 0 0 0 211.34 375.343 A 1.744 1.744 0 0 0 211.156 375.334 Q 210.336 375.334 209.97 375.788 Q 209.627 376.213 209.596 377.109 A 5.158 5.158 0 0 0 209.594 377.233 Z"
       id="top_labelLayer"
       stroke="#777777"
       fill="#777777"
       style="stroke:#ff0001;fill:none;fill-opacity:1;stroke-opacity:1"
       vector-effect="non-scaling-stroke" />
    <path
       d="M 0 0 L 0 39.025 L 3 39.025 L 3 63.415 L 0 63.415 L 0 87.805 L 3 87.805 L 3 112.195 L 0 112.195 L 0 136.585 L 3 136.585 L 3 160.975 L 0 160.975 L 0 185.365 L 0 200 L 37.805 200 L 37.805 197 L 62.195 197 L 62.195 200 L 86.585 200 L 100 200 L 100 160.975 L 97 160.975 L 97 136.585 L 100 136.585 L 100 112.195 L 97 112.195 L 97 87.805 L 100 87.805 L 100 63.415 L 97 63.415 L 97 39.025 L 100 39.025 L 100 14.635 L 100 0 L 62.195 0 L 62.195 3 L 37.805 3 L 37.805 0 L 13.415 0 L 0 0 Z"
       id="back_outsideCutPath"
       stroke="#FF0000"
       stroke-width="0.1"
       style="stroke:#ff0001;stroke-width:0.1;fill:none;fill-opacity:1;stroke-opacity:1"
       vector-effect="non-scaling-stroke" />
    <path
       d="m 55.836627,96.351183 h 0.0477 q 0.253025,-0.359315 0.772361,-0.943263 l 2.087608,-2.2114 h 1.161863 l -2.618418,2.753684 2.800789,3.709629 h -1.18481 l -2.282661,-3.055027 -0.736732,0.6371 v 2.417927 h -0.967413 v -9.175936 h 0.967414 v 4.864848 a 6.5237009,6.5237009 0 0 1 -0.003,0.184181 q -0.0091,0.309784 -0.04468,0.818257 z m -19.808428,2.47711 h -0.07126 l -0.205923,0.83154 h -0.701704 v -9.175936 h 0.978887 v 2.228916 q 0,0.724656 -0.04409,1.306189 a 12.209218,12.209218 0 0 1 -0.003,0.03863 h 0.0471 a 2.2258967,2.2258967 0 0 1 1.624433,-0.943863 3.343676,3.343676 0 0 1 0.403995,-0.02355 2.9922186,2.9922186 0 0 1 0.841807,0.112321 2.2397859,2.2397859 0 0 1 1.136499,0.757263 2.8847282,2.8847282 0 0 1 0.506051,0.97466 q 0.124399,0.400979 0.170897,0.881665 a 6.2833572,6.2833572 0 0 1 0.02778,0.60629 q 0,1.591835 -0.710162,2.473495 a 2.3176862,2.3176862 0 0 1 -1.647381,0.86596 3.3201247,3.3201247 0 0 1 -0.325491,0.0157 2.9692713,2.9692713 0 0 1 -0.746393,-0.0906 2.5833928,2.5833928 0 0 1 -0.406411,-0.14252 q -0.521751,-0.23249 -0.875624,-0.716194 z m 11.122237,0.83154 h -0.725862 l -0.194449,-0.92031 h -0.0471 a 4.0580644,4.0580644 0 0 1 -0.328509,0.36776 q -0.176333,0.17392 -0.352666,0.29469 a 1.8037855,1.8037855 0 0 1 -0.283218,0.16063 q -0.480084,0.21498 -1.199907,0.21498 a 3.0042962,3.0042962 0 0 1 -0.611125,-0.0586 q -0.537452,-0.11172 -0.895553,-0.4366 a 1.6093366,1.6093366 0 0 1 -0.485518,-0.848452 2.463221,2.463221 0 0 1 -0.05978,-0.561009 q 0,-1.894971 2.932435,-2.044128 a 9.5618144,9.5618144 0 0 1 0.198676,-0.0085 l 1.097248,-0.03501 v -0.400979 a 2.8116589,2.8116589 0 0 0 -0.02778,-0.406407 q -0.03019,-0.20834 -0.09481,-0.375009 a 1.0924164,1.0924164 0 0 0 -0.204715,-0.342402 0.99398427,0.99398427 0 0 0 -0.407015,-0.2651 q -0.163047,-0.05916 -0.365346,-0.08273 a 2.4185339,2.4185339 0 0 0 -0.274765,-0.01448 q -0.649169,0 -1.436023,0.320059 a 6.5563104,6.5563104 0 0 0 -0.391917,0.175126 l -0.300732,-0.748808 a 4.5133889,4.5133889 0 0 1 0.870793,-0.358103 5.1377995,5.1377995 0 0 1 0.175728,-0.04892 4.5333169,4.5333169 0 0 1 1.141331,-0.147347 4.134757,4.134757 0 0 1 0.629846,0.04469 q 0.690233,0.106886 1.083358,0.468614 0.436604,0.402174 0.531413,1.185408 a 3.8521419,3.8521419 0 0 1 0.02597,0.459548 z m 6.32744,-6.245312 -0.300731,0.831537 a 4.3551727,4.3551727 0 0 0 -0.472234,-0.157009 5.2012067,5.2012067 0 0 0 -0.235512,-0.05798 q -0.327906,-0.07363 -0.591197,-0.08394 a 2.1697359,2.1697359 0 0 0 -0.08696,-0.0016 q -1.969853,0 -1.969853,2.512138 a 4.7410512,4.7410512 0 0 0 0.0471,0.690233 q 0.103263,0.699892 0.433584,1.137704 a 1.5549875,1.5549875 0 0 0 1.00727,0.602069 2.368412,2.368412 0 0 0 0.41728,0.035 4.0979204,4.0979204 0 0 0 1.130461,-0.164252 5.0598991,5.0598991 0 0 0 0.526582,-0.183583 v 0.867165 a 2.7844844,2.7844844 0 0 1 -0.681175,0.24094 q -0.314621,0.0695 -0.681175,0.0882 a 5.3684811,5.3684811 0 0 1 -0.271141,0.006 3.6589007,3.6589007 0 0 1 -0.890118,-0.10206 2.4807334,2.4807334 0 0 1 -1.283242,-0.76148 q -0.66487,-0.746393 -0.755452,-2.02722 a 5.9192184,5.9192184 0 0 1 -0.01389,-0.417282 5.4016944,5.4016944 0 0 1 0.08333,-0.982512 q 0.101452,-0.547721 0.326095,-0.97949 a 2.6987337,2.6987337 0 0 1 0.371988,-0.5447 2.5350825,2.5350825 0 0 1 1.387714,-0.797722 3.8424797,3.8424797 0 0 1 0.838184,-0.08696 4.4179761,4.4179761 0 0 1 0.931784,0.100244 q 0.46076,0.09964 0.725258,0.233097 a 1.4583669,1.4583669 0 0 1 0.0061,0.0031 z M 37.91532,93.909698 a 2.7506672,2.7506672 0 0 0 -0.533225,0.0483 q -0.597236,0.118359 -0.911856,0.527188 a 1.6757632,1.6757632 0 0 0 -0.242759,0.461963 q -0.163652,0.458345 -0.193242,1.155829 a 7.5424441,7.5424441 0 0 0 -0.0061,0.319445 6.4729751,6.4729751 0 0 0 0.032,0.668497 q 0.07005,0.675142 0.295297,1.085774 a 1.4764833,1.4764833 0 0 0 0.126815,0.194456 1.4203225,1.4203225 0 0 0 0.720427,0.486122 q 0.320659,0.100851 0.736128,0.100851 0.902194,0 1.344234,-0.657627 a 2.2470324,2.2470324 0 0 0 0.278388,-0.601468 q 0.08696,-0.285633 0.128022,-0.631653 a 5.6094286,5.6094286 0 0 0 0.03623,-0.657028 5.7839496,5.7839496 0 0 0 -0.03502,-0.658833 q -0.08334,-0.72103 -0.362328,-1.156426 a 1.6238296,1.6238296 0 0 0 -0.04529,-0.06585 q -0.442039,-0.619577 -1.367785,-0.619577 z m 8.256229,3.155272 v -0.583959 l -0.979491,0.04169 q -0.97466,0.03446 -1.495204,0.2639 a 1.5036578,1.5036578 0 0 0 -0.18841,0.09843 1.0447101,1.0447101 0 0 0 -0.497596,0.757863 1.5459293,1.5459293 0 0 0 -0.01812,0.241555 1.3991868,1.3991868 0 0 0 0.03442,0.321263 q 0.05797,0.246385 0.213773,0.416076 a 0.87200073,0.87200073 0 0 0 0.07307,0.07064 1.0658458,1.0658458 0 0 0 0.399165,0.211965 q 0.219811,0.0652 0.500011,0.0652 0.914272,0 1.436023,-0.501218 0.519335,-0.498198 0.522356,-1.393749 a 3.1178254,3.1178254 0 0 0 0,-0.0097 z"
       id="back_labelLayer"
       stroke="#777777"
       fill="#777777"
       style="fill:none;fill-opacity:1;stroke:#ff0001;stroke-width:0.15097mm;stroke-opacity:1"
       vector-effect="non-scaling-stroke" />
    <path
       d="M 106 0 L 106 39.025 L 103 39.025 L 103 63.415 L 106 63.415 L 106 87.805 L 103 87.805 L 103 112.195 L 106 112.195 L 106 136.585 L 103 136.585 L 103 160.975 L 106 160.975 L 106 185.365 L 106 200 L 115.805 200 L 115.805 197 L 140.195 197 L 140.195 200 L 150 200 L 150 160.975 L 153 160.975 L 153 136.585 L 150 136.585 L 150 112.195 L 153 112.195 L 153 87.805 L 150 87.805 L 150 63.415 L 153 63.415 L 153 39.025 L 150 39.025 L 150 14.635 L 150 0 L 140.195 0 L 140.195 3 L 115.805 3 L 115.805 0 L 106 0 Z"
       id="right_outsideCutPath"
       stroke="#FF0000"
       stroke-width="0.1"
       style="stroke:#ff0001;stroke-width:0.1;fill:none;fill-opacity:1;stroke-opacity:1"
       vector-effect="non-scaling-stroke" />
    <path
       d="M 134.218 102.598 L 133.408 102.598 L 133.408 99.136 A 2.291 2.291 0 0 0 133.381 98.776 Q 133.319 98.386 133.11 98.159 A 0.914 0.914 0 0 0 132.735 97.92 Q 132.5 97.837 132.177 97.837 A 2.453 2.453 0 0 0 131.719 97.877 Q 131.464 97.925 131.269 98.033 A 1.135 1.135 0 0 0 130.944 98.296 A 1.349 1.349 0 0 0 130.715 98.701 Q 130.577 99.073 130.559 99.625 A 5.231 5.231 0 0 0 130.556 99.8 L 130.556 102.598 L 129.746 102.598 L 129.746 95 L 130.556 95 L 130.556 97.3 A 7.291 7.291 0 0 1 130.551 97.58 Q 130.546 97.711 130.536 97.824 A 3.171 3.171 0 0 1 130.517 97.988 L 130.566 97.988 A 1.619 1.619 0 0 1 131.133 97.442 A 1.978 1.978 0 0 1 131.247 97.38 A 2.081 2.081 0 0 1 131.93 97.178 A 2.631 2.631 0 0 1 132.255 97.158 A 3.288 3.288 0 0 1 132.808 97.201 Q 133.102 97.252 133.334 97.36 A 1.461 1.461 0 0 1 133.728 97.624 A 1.411 1.411 0 0 1 134.076 98.171 Q 134.218 98.559 134.218 99.106 L 134.218 102.598 Z M 126.796 97.246 L 128.647 97.246 L 128.647 97.759 L 127.656 97.876 Q 127.792 98.047 127.9 98.323 Q 128.007 98.599 128.007 98.945 A 1.858 1.858 0 0 1 127.922 99.521 A 1.503 1.503 0 0 1 127.47 100.2 Q 126.986 100.622 126.178 100.664 A 3.521 3.521 0 0 1 125.996 100.669 A 2.605 2.605 0 0 1 125.694 100.652 A 2.2 2.2 0 0 1 125.546 100.63 A 1.442 1.442 0 0 0 125.314 100.78 Q 125.194 100.877 125.124 100.988 A 0.61 0.61 0 0 0 125.029 101.318 Q 125.029 101.538 125.209 101.643 Q 125.39 101.748 125.83 101.748 L 126.777 101.748 A 3.318 3.318 0 0 1 127.281 101.784 Q 127.544 101.824 127.757 101.911 A 1.465 1.465 0 0 1 128.112 102.114 A 1.186 1.186 0 0 1 128.553 102.87 A 1.781 1.781 0 0 1 128.579 103.179 Q 128.579 104.067 127.866 104.534 Q 127.369 104.859 126.553 104.957 A 6.424 6.424 0 0 1 125.786 105 A 4.541 4.541 0 0 1 125.176 104.962 Q 124.558 104.878 124.167 104.609 A 1.292 1.292 0 0 1 123.751 104.157 Q 123.617 103.91 123.601 103.597 A 1.711 1.711 0 0 1 123.598 103.506 A 1.239 1.239 0 0 1 123.911 102.661 Q 124.223 102.305 124.79 102.178 A 0.841 0.841 0 0 1 124.463 101.914 A 0.999 0.999 0 0 1 124.445 101.89 A 0.751 0.751 0 0 1 124.307 101.483 A 0.931 0.931 0 0 1 124.306 101.436 A 0.927 0.927 0 0 1 124.353 101.137 A 0.821 0.821 0 0 1 124.462 100.923 A 1.16 1.16 0 0 1 124.616 100.75 Q 124.697 100.674 124.802 100.599 A 2.546 2.546 0 0 1 124.956 100.498 A 1.421 1.421 0 0 1 124.338 100.004 A 1.761 1.761 0 0 1 124.279 99.917 A 1.676 1.676 0 0 1 124.022 99.109 A 2.045 2.045 0 0 1 124.018 98.979 Q 124.018 98.101 124.545 97.624 A 1.721 1.721 0 0 1 125.206 97.26 Q 125.469 97.18 125.784 97.157 A 3.58 3.58 0 0 1 126.04 97.148 A 3.107 3.107 0 0 1 126.451 97.174 A 2.366 2.366 0 0 1 126.796 97.246 Z M 138.344 101.929 L 138.344 102.549 A 0.797 0.797 0 0 1 138.25 102.586 Q 138.149 102.62 138.004 102.646 A 3.033 3.033 0 0 1 137.956 102.654 Q 137.7 102.695 137.495 102.695 A 2.117 2.117 0 0 1 136.871 102.611 Q 135.942 102.325 135.942 101.06 L 135.942 97.876 L 135.175 97.876 L 135.175 97.485 L 135.942 97.148 L 136.284 96.006 L 136.752 96.006 L 136.752 97.246 L 138.305 97.246 L 138.305 97.876 L 136.752 97.876 L 136.752 101.025 A 1.632 1.632 0 0 0 136.776 101.312 Q 136.804 101.469 136.866 101.594 A 0.786 0.786 0 0 0 136.982 101.768 Q 137.211 102.026 137.612 102.026 A 2.662 2.662 0 0 0 138.002 101.998 A 2.453 2.453 0 0 0 138.027 101.995 Q 138.227 101.963 138.344 101.929 Z M 120.737 97.207 L 120.625 97.959 Q 120.348 97.898 120.126 97.888 A 1.901 1.901 0 0 0 120.039 97.886 Q 119.389 97.886 118.928 98.413 A 1.851 1.851 0 0 0 118.481 99.452 A 2.46 2.46 0 0 0 118.466 99.727 L 118.466 102.598 L 117.656 102.598 L 117.656 97.246 L 118.325 97.246 L 118.417 98.237 L 118.457 98.237 A 2.737 2.737 0 0 1 118.763 97.8 A 2.091 2.091 0 0 1 119.174 97.432 Q 119.594 97.148 120.097 97.148 A 3.721 3.721 0 0 1 120.43 97.163 A 2.716 2.716 0 0 1 120.737 97.207 Z M 122.548 97.246 L 122.548 102.598 L 121.738 102.598 L 121.738 97.246 L 122.548 97.246 Z M 126.518 102.476 L 125.546 102.476 A 1.863 1.863 0 0 0 125.211 102.504 Q 124.894 102.562 124.687 102.739 Q 124.379 103.003 124.379 103.496 A 0.814 0.814 0 0 0 124.433 103.798 Q 124.52 104.017 124.746 104.155 Q 125.112 104.38 125.795 104.38 A 5.449 5.449 0 0 0 126.328 104.356 Q 126.861 104.303 127.196 104.136 A 1.346 1.346 0 0 0 127.307 104.075 Q 127.797 103.77 127.797 103.247 A 1.097 1.097 0 0 0 127.777 103.029 Q 127.724 102.766 127.529 102.644 A 0.769 0.769 0 0 0 127.347 102.564 Q 127.057 102.476 126.518 102.476 Z M 124.819 98.96 A 1.582 1.582 0 0 0 124.851 99.292 Q 124.921 99.614 125.136 99.81 Q 125.454 100.098 126.02 100.098 Q 126.957 100.098 127.154 99.379 A 1.642 1.642 0 0 0 127.207 98.945 Q 127.207 97.988 126.45 97.791 A 1.763 1.763 0 0 0 126.005 97.739 Q 125.568 97.739 125.285 97.92 A 0.933 0.933 0 0 0 125.126 98.047 Q 124.865 98.308 124.826 98.783 A 2.132 2.132 0 0 0 124.819 98.96 Z M 121.806 95.388 A 0.379 0.379 0 0 0 121.722 95.507 Q 121.669 95.623 121.669 95.796 Q 121.669 95.934 121.704 96.036 A 0.418 0.418 0 0 0 121.806 96.204 Q 121.943 96.338 122.148 96.338 A 0.473 0.473 0 0 0 122.485 96.204 A 0.396 0.396 0 0 0 122.562 96.101 Q 122.597 96.035 122.613 95.95 A 0.839 0.839 0 0 0 122.626 95.796 A 0.927 0.927 0 0 0 122.622 95.708 Q 122.603 95.5 122.485 95.391 A 0.478 0.478 0 0 0 122.148 95.259 A 0.619 0.619 0 0 0 122.107 95.26 A 0.469 0.469 0 0 0 121.806 95.388 Z"
       id="right_labelLayer"
       stroke="#777777"
       fill="#777777"
       style="stroke:#ff0001;fill:none;fill-opacity:1;stroke-opacity:1"
       vector-effect="non-scaling-stroke" />
    <path
       d="M 159 303 L 159 312.805 L 156 312.805 L 156 337.195 L 159 337.195 L 159 347 L 193.805 347 L 193.805 350 L 218.195 350 L 218.195 347 L 242.585 347 L 253 347 L 253 337.195 L 256 337.195 L 256 312.805 L 253 312.805 L 253 303 L 218.195 303 L 218.195 300 L 193.805 300 L 193.805 303 L 169.415 303 L 159 303 Z"
       id="bottom_outsideCutPath"
       stroke="#FF0000"
       stroke-width="0.1"
       style="stroke:#ff0001;stroke-width:0.1;fill:none;fill-opacity:1;stroke-opacity:1"
       vector-effect="non-scaling-stroke" />
    <path
       d="M 222.45 328.75 L 221.64 328.75 L 221.64 325.268 Q 221.64 324.868 221.532 324.593 A 0.98 0.98 0 0 0 221.366 324.309 A 0.853 0.853 0 0 0 220.97 324.053 Q 220.773 323.989 220.517 323.989 A 2.086 2.086 0 0 0 220.092 324.029 Q 219.65 324.122 219.398 324.424 Q 219.039 324.856 219.037 325.753 A 4.551 4.551 0 0 0 219.037 325.762 L 219.037 328.75 L 218.227 328.75 L 218.227 325.268 Q 218.227 324.868 218.119 324.593 A 0.98 0.98 0 0 0 217.953 324.309 A 0.85 0.85 0 0 0 217.562 324.055 Q 217.421 324.009 217.249 323.995 A 1.898 1.898 0 0 0 217.099 323.989 A 2.013 2.013 0 0 0 216.682 324.029 Q 216.232 324.125 215.983 324.446 Q 215.662 324.859 215.632 325.752 A 5.643 5.643 0 0 0 215.629 325.942 L 215.629 328.75 L 214.818 328.75 L 214.818 323.398 L 215.478 323.398 L 215.609 324.131 L 215.648 324.131 A 1.593 1.593 0 0 1 216.295 323.52 A 1.924 1.924 0 0 1 217.055 323.307 A 2.324 2.324 0 0 1 217.23 323.301 A 2.654 2.654 0 0 1 217.828 323.363 Q 218.586 323.538 218.871 324.209 L 218.91 324.209 A 1.692 1.692 0 0 1 219.548 323.576 A 2.033 2.033 0 0 1 219.603 323.545 A 2.051 2.051 0 0 1 220.356 323.316 A 2.558 2.558 0 0 1 220.639 323.301 Q 221.251 323.301 221.656 323.513 A 1.336 1.336 0 0 1 221.999 323.767 Q 222.327 324.106 222.417 324.742 A 3.718 3.718 0 0 1 222.45 325.259 L 222.45 328.75 Z M 190.36 328.061 L 190.302 328.061 L 190.131 328.75 L 189.55 328.75 L 189.55 321.152 L 190.36 321.152 L 190.36 322.998 Q 190.36 323.598 190.324 324.079 A 10.075 10.075 0 0 1 190.321 324.111 L 190.36 324.111 A 1.843 1.843 0 0 1 191.705 323.33 A 2.768 2.768 0 0 1 192.04 323.31 A 2.477 2.477 0 0 1 192.737 323.403 A 1.854 1.854 0 0 1 193.678 324.031 Q 194.145 324.607 194.239 325.568 A 5.203 5.203 0 0 1 194.262 326.069 A 4.752 4.752 0 0 1 194.199 326.869 Q 194.126 327.295 193.969 327.637 A 2.278 2.278 0 0 1 193.673 328.118 A 1.919 1.919 0 0 1 192.31 328.835 A 2.749 2.749 0 0 1 192.04 328.848 Q 191.518 328.848 191.085 328.655 A 1.795 1.795 0 0 1 190.36 328.061 Z M 204.179 328.081 L 204.179 328.701 A 0.797 0.797 0 0 1 204.084 328.739 Q 203.983 328.772 203.839 328.798 A 3.033 3.033 0 0 1 203.791 328.806 Q 203.534 328.848 203.329 328.848 A 2.117 2.117 0 0 1 202.705 328.764 Q 201.776 328.477 201.776 327.212 L 201.776 324.028 L 201.01 324.028 L 201.01 323.638 L 201.776 323.301 L 202.118 322.158 L 202.587 322.158 L 202.587 323.398 L 204.14 323.398 L 204.14 324.028 L 202.587 324.028 L 202.587 327.178 A 1.632 1.632 0 0 0 202.61 327.464 Q 202.639 327.622 202.7 327.746 A 0.786 0.786 0 0 0 202.816 327.92 Q 203.046 328.179 203.446 328.179 A 2.662 2.662 0 0 0 203.836 328.151 A 2.453 2.453 0 0 0 203.861 328.147 Q 204.061 328.115 204.179 328.081 Z M 207.709 328.081 L 207.709 328.701 A 0.797 0.797 0 0 1 207.614 328.739 Q 207.514 328.772 207.369 328.798 A 3.033 3.033 0 0 1 207.321 328.806 Q 207.064 328.848 206.859 328.848 A 2.117 2.117 0 0 1 206.235 328.764 Q 205.307 328.477 205.307 327.212 L 205.307 324.028 L 204.54 324.028 L 204.54 323.638 L 205.307 323.301 L 205.648 322.158 L 206.117 322.158 L 206.117 323.398 L 207.67 323.398 L 207.67 324.028 L 206.117 324.028 L 206.117 327.178 A 1.632 1.632 0 0 0 206.141 327.464 Q 206.169 327.622 206.23 327.746 A 0.786 0.786 0 0 0 206.347 327.92 Q 206.576 328.179 206.977 328.179 A 2.662 2.662 0 0 0 207.366 328.151 A 2.453 2.453 0 0 0 207.392 328.147 Q 207.592 328.115 207.709 328.081 Z M 200.222 326.884 A 4.187 4.187 0 0 0 200.297 326.069 Q 200.297 325.549 200.187 325.117 A 2.524 2.524 0 0 0 199.635 324.048 A 2.122 2.122 0 0 0 198.65 323.412 A 2.724 2.724 0 0 0 197.851 323.301 A 3.148 3.148 0 0 0 197.285 323.349 A 2.144 2.144 0 0 0 196.034 324.031 A 2.239 2.239 0 0 0 195.759 324.412 Q 195.38 325.073 195.38 326.069 A 4.055 4.055 0 0 0 195.431 326.726 A 2.998 2.998 0 0 0 195.683 327.544 A 2.664 2.664 0 0 0 195.742 327.659 A 2.194 2.194 0 0 0 196.542 328.511 Q 197.099 328.848 197.816 328.848 A 3.147 3.147 0 0 0 198.366 328.802 A 2.161 2.161 0 0 0 199.638 328.113 A 2.261 2.261 0 0 0 199.907 327.743 Q 200.127 327.367 200.222 326.884 Z M 213.323 326.884 A 4.187 4.187 0 0 0 213.397 326.069 Q 213.397 325.549 213.287 325.117 A 2.524 2.524 0 0 0 212.736 324.048 A 2.122 2.122 0 0 0 211.751 323.412 A 2.724 2.724 0 0 0 210.951 323.301 A 3.148 3.148 0 0 0 210.386 323.349 A 2.144 2.144 0 0 0 209.135 324.031 A 2.239 2.239 0 0 0 208.86 324.412 Q 208.48 325.073 208.48 326.069 A 4.055 4.055 0 0 0 208.531 326.726 A 2.998 2.998 0 0 0 208.783 327.544 A 2.664 2.664 0 0 0 208.842 327.659 A 2.194 2.194 0 0 0 209.643 328.511 Q 210.199 328.848 210.917 328.848 A 3.147 3.147 0 0 0 211.467 328.802 A 2.161 2.161 0 0 0 212.738 328.113 A 2.261 2.261 0 0 0 213.007 327.743 Q 213.227 327.367 213.323 326.884 Z M 196.22 326.069 Q 196.22 327.095 196.63 327.632 A 1.328 1.328 0 0 0 197.495 328.141 A 2.013 2.013 0 0 0 197.836 328.169 A 1.883 1.883 0 0 0 198.333 328.107 A 1.31 1.31 0 0 0 199.044 327.634 A 1.74 1.74 0 0 0 199.315 327.106 Q 199.395 326.863 199.43 326.565 A 4.27 4.27 0 0 0 199.457 326.069 A 4.044 4.044 0 0 0 199.419 325.493 Q 199.376 325.2 199.287 324.962 A 1.669 1.669 0 0 0 199.044 324.519 A 1.333 1.333 0 0 0 198.215 324.024 A 2.044 2.044 0 0 0 197.826 323.989 A 1.929 1.929 0 0 0 197.346 324.045 A 1.291 1.291 0 0 0 196.625 324.512 Q 196.22 325.034 196.22 326.069 Z M 209.32 326.069 Q 209.32 327.095 209.73 327.632 A 1.328 1.328 0 0 0 210.596 328.141 A 2.013 2.013 0 0 0 210.936 328.169 A 1.883 1.883 0 0 0 211.433 328.107 A 1.31 1.31 0 0 0 212.145 327.634 A 1.74 1.74 0 0 0 212.416 327.106 Q 212.496 326.863 212.53 326.565 A 4.27 4.27 0 0 0 212.558 326.069 A 4.044 4.044 0 0 0 212.519 325.493 Q 212.477 325.2 212.388 324.962 A 1.669 1.669 0 0 0 212.145 324.519 A 1.333 1.333 0 0 0 211.316 324.024 A 2.044 2.044 0 0 0 210.927 323.989 A 1.929 1.929 0 0 0 210.446 324.045 A 1.291 1.291 0 0 0 209.726 324.512 Q 209.32 325.034 209.32 326.069 Z M 191.04 324.19 A 1.078 1.078 0 0 0 190.727 324.465 Q 190.36 324.941 190.36 326.069 A 5.359 5.359 0 0 0 190.387 326.623 Q 190.445 327.182 190.632 327.522 A 1.222 1.222 0 0 0 190.736 327.683 A 1.176 1.176 0 0 0 191.333 328.086 Q 191.532 328.148 191.775 328.164 A 2.606 2.606 0 0 0 191.942 328.169 A 1.616 1.616 0 0 0 192.401 328.107 A 1.166 1.166 0 0 0 193.056 327.624 Q 193.422 327.08 193.422 326.059 A 4.789 4.789 0 0 0 193.393 325.514 Q 193.319 324.87 193.056 324.502 Q 192.689 323.989 191.923 323.989 Q 191.383 323.989 191.04 324.19 Z"
       id="bottom_labelLayer"
       stroke="#777777"
       fill="#777777"
       style="stroke:#ff0001;fill:none;fill-opacity:1;stroke-opacity:1"
       vector-effect="non-scaling-stroke" />
    <path
       id="path24"
       style="fill:none;stroke-width:0.60854165;fill-opacity:1;stroke:#ff0000;stroke-opacity:1;stroke-miterlimit:4;stroke-dasharray:none"
       d="m 47.566775,194.4171 c 0.150946,0.005 0.131566,0.009 0.0093,0.0198 -0.0031,-0.007 -0.0062,-0.0129 -0.0093,-0.0198 z m -0.02195,-0.57251 h 7.3e-5 c 0.01883,7.8e-4 0.04387,0.0108 0.06632,0.0168 -0.01365,0.0142 -0.02691,0.0244 -0.04068,0.0394 -0.04947,0.005 -0.09531,0.0149 -0.142762,0.0343 0.0052,-0.0262 0.01407,-0.0487 0.0299,-0.0635 0.021,-0.0199 0.05069,-0.0288 0.08712,-0.0268 z m -3.6435,-24.8202 h -4.2e-5 c -0.100163,0.003 -0.279085,0.16847 -0.487655,0.47346 -0.33373,0.488 -0.591078,1.28663 -0.572142,1.77461 0.03632,0.93686 1.079084,-0.94977 1.144273,-2.07021 0.0072,-0.12203 -0.02431,-0.17981 -0.08444,-0.17786 z M 42.272062,28.160169 h 4.2e-5 c -0.02329,0.02929 -0.04398,0.06008 -0.06631,0.08995 -0.02732,-0.01458 -0.05506,-0.02752 -0.08236,-0.04245 0.04967,-0.01557 0.09913,-0.03175 0.148648,-0.0475 z m -2.830211,-2.138922 -2.1e-4,5.9e-5 c -0.008,0.0058 -0.0125,0.009 -0.0197,0.01363 -0.002,-0.0027 -0.005,-0.0054 -0.007,-0.0081 0.0104,-0.0023 0.0169,-0.0036 0.0272,-0.0056 z M 67.787328,13.119493 v 4.8e-5 c -0.123681,-0.0015 -0.252379,-5.85e-4 -0.386594,0.003 -1.670233,0.04495 -4.167163,0.491439 -7.766653,1.326407 -4.273666,0.991347 -12.977688,2.62188 -19.34205,3.623485 -6.36434,1.00158 -12.17828,2.196988 -12.92018,2.656348 -1.12351,0.695665 -1.41218,1.60619 -1.72818,5.448114 -0.84483,10.271485 -2.3454,27.879315 -3.51839,41.285815 -3.67296,41.97968 -3.48755,38.80379 -2.31315,39.61529 0.85848,0.59322 2.08801,0.57516 6.23258,-0.092 2.83972,-0.45709 7.47516,-0.98946 10.30117,-1.1829 5.87873,-0.40241 8.138694,0.21396 10.497953,2.86352 2.777214,3.11899 2.780691,2.78112 -0.339546,33.91757 -0.684637,6.83192 -1.51938,14.86266 -1.8549,17.84609 -0.657538,5.84672 -0.74785,7.63133 -0.367888,7.24395 0.132953,-0.13557 2.913996,-6.10225 6.180179,-13.25951 3.266166,-7.15725 7.786479,-17.13945 10.045047,-22.18205 5.591661,-12.48428 16.227644,-36.29783 19.334559,-43.28931 1.400179,-3.15088 2.376596,-6.14566 2.169848,-6.65477 -0.524898,-1.29262 -2.024355,-1.17996 -12.001016,0.90145 -5.555342,1.15901 -9.814883,1.73423 -11.650249,1.573 -5.351107,-0.47011 -8.853602,-4.15723 -8.80559,-9.26968 0.02461,-2.61873 1.017704,-5.49682 16.341251,-47.349885 2.438507,-6.660301 4.433283,-12.58834 4.433283,-13.173605 0,-1.217744 -0.686282,-1.826648 -2.541484,-1.850399 z m -30.122847,-3.8938204 9e-5,1.4e-5 c 0.0314,0.162509 -0.008,0.2722097 -0.10801,0.3173247 -0.005,-0.0022 -0.0184,-0.0062 -0.0246,-0.0086 0.0122,-0.07897 0.0314,-0.1639997 0.0524,-0.2511327 0.0266,-0.01974 0.0538,-0.03732 0.0802,-0.05759 z M 68.210293,6.8330921 v 1.6e-5 c -3.244022,0 -42.348362,7.6780429 -43.854732,8.6107679 -2.0304,1.257189 -3.89541,4.143284 -4.37393,6.768456 -0.20754,1.138656 -0.78455,7.127759 -1.28223,13.309025 -0.4977,6.181273 -1.33098,15.896563 -1.8517,21.589833 -2.7228,29.77023 -4.14026,48.4077 -3.8098,50.08555 0.4208,2.13654 3.84613,5.28837 6.40742,5.89581 0.91975,0.21815 5.86584,-0.19416 10.99096,-0.91661 8.58288,-1.20985 9.43786,-1.23939 10.834806,-0.37442 1.27434,0.78906 1.516444,1.41735 1.516444,3.93375 0,3.10254 -2.66359,33.95699 -3.75848,43.53588 -0.34252,2.99647 -0.62293,7.4288 -0.62293,9.84977 v 4.40214 l 1.97147,0.64931 c 2.533716,0.83468 2.417308,0.868 2.366091,-0.68164 -0.04036,-1.21897 -0.08371,-1.23493 -0.516536,-0.19101 -0.790658,1.90727 -1.304315,-0.3324 -0.685495,-2.98935 0.582323,-2.50024 1.350636,-8.98874 2.792786,-23.58523 0.514291,-5.20525 1.392928,-13.8427 1.952227,-19.19423 1.542156,-14.75574 0.919003,-17.65071 -4.283562,-19.89911 -2.246521,-0.97088 -2.712181,-0.95945 -10.640711,0.25972 -4.56036,0.70125 -9.35411,1.27464 -10.65248,1.27386 -3.78525,-0.002 -3.9744,-0.99395 -2.73986,-14.35094 1.02451,-11.08429 2.24683,-24.77242 3.49914,-39.18175 0.3393,-3.90396 1.06177,-12.6882 1.60521,-19.520136 0.54342,-6.831922 1.26308,-13.400761 1.59931,-14.59753 0.75964,-2.703867 0.90643,-2.752064 16.862064,-5.527448 6.713195,-1.167719 14.667735,-2.640466 17.676417,-3.272808 7.274094,-1.528898 11.482706,-1.530718 12.346444,-0.0056 0.35638,0.629244 0.64807,1.711018 0.64807,2.403697 0,0.692682 -3.268026,10.092909 -7.262422,20.889492 C 54.443936,64.38406 50.924729,74.31599 50.924729,75.57017 c 0,2.22219 2.409496,5.61578 4.724167,6.65375 2.718309,1.21897 4.622452,1.07804 14.976675,-1.10811 9.318075,-1.96741 12.271721,-1.8811 13.109468,0.383 0.473131,1.27873 0.256135,2.38638 -1.042134,5.32382 -4.328142,9.79274 -21.108313,47.30425 -30.500905,68.18328 -4.390579,9.7599 -8.424986,19.20934 -8.964937,20.99863 -1.365173,4.52391 -1.560539,9.39727 -0.404784,10.08827 0.74701,0.44661 0.713817,0.54193 -0.190886,0.54976 -1.264191,0.0104 -1.531601,2.86595 -0.44755,4.7801 0.807623,1.42607 2.874707,1.48825 3.632281,0.10917 0.312736,-0.56932 0.486983,-1.70055 0.387132,-2.51387 -0.09986,-0.81333 -0.205011,-1.67866 -0.233672,-1.92267 -0.02866,-0.24397 -0.545032,-0.44784 -1.147489,-0.45273 -0.910241,-0.008 -0.941344,-0.10084 -0.184473,-0.5533 0.630253,-0.37671 0.856225,-1.38365 0.73362,-3.26776 -0.136075,-2.09104 0.331859,-3.78161 2.016391,-7.28386 3.254566,-6.76648 9.170797,-19.66499 9.170797,-19.99409 0,-0.15764 3.066318,-6.86469 6.813806,-14.90425 22.889515,-49.10535 25.856698,-55.90922 25.547877,-58.58163 -0.529502,-4.58212 -5.173863,-7.57342 -10.24556,-6.5992 -1.319596,0.25351 -5.888454,1.15305 -10.153065,1.99947 -10.91459,2.16629 -12.5892,1.99414 -12.5892,-1.29659 0,-0.77894 3.40848,-10.9071 7.574161,-22.50695 4.165704,-11.59982 8.813227,-24.53972 10.327911,-28.755454 1.514694,-4.215741 2.752646,-8.741055 2.751615,-10.055921 -0.0036,-4.388866 -3.790687,-8.0099679 -8.375682,-8.0099679 z m 0.706345,-1.642216 c 1.108078,-0.01024 2.06519,0.03925 2.604033,0.151082 2.824315,0.586204 6.065907,3.7278945 6.912724,6.6997359 0.912522,3.202457 0.773025,3.688242 -7.758094,27.028856 -14.351122,39.26372 -13.732388,37.28305 -11.854515,37.96398 0.555742,0.20152 5.254701,-0.49453 10.442342,-1.54671 5.187639,-1.05218 10.616828,-1.91306 12.064646,-1.91306 5.616722,0 9.294841,3.53154 9.319994,8.94832 0.01496,3.26429 -0.853445,5.40522 -10.93214,26.93688 -0.60913,1.30131 -3.416505,7.42335 -6.238456,13.60463 -2.821945,6.18124 -5.845591,12.7026 -6.719158,14.49191 -1.858595,3.80694 -13.616021,29.7221 -17.152404,37.80635 -2.333441,5.33431 -3.183044,10.19114 -1.91266,10.9331 0.287904,0.16814 0.570673,1.49463 0.628824,2.9474 0.08867,2.21445 -0.160993,2.83975 -1.546387,3.86957 -0.920647,0.68435 -2.574864,1.22838 -3.734937,1.22838 -1.914721,0 -2.138799,-0.19895 -2.786909,-2.47344 -0.67796,-2.37924 -0.40811,-12.91217 0.38071,-14.85472 0.23737,-0.58454 -0.21434,-0.99673 -1.40201,-1.2784 -0.96381,-0.2286 -1.96213,-0.72725 -2.21851,-1.10812 -0.74616,-1.10851 -0.56881,-5.68342 0.75982,-19.59543 3.40125,-35.61404 3.754149,-40.79748 2.83664,-41.66832 -0.74892,-0.71083 -2.30288,-0.6333 -10.90541,0.54319 -9.88286,1.35155 -10.07052,1.35533 -12.6202,0.26883 -1.42349,-0.6066 -3.33455,-2.02846 -4.24719,-3.15963 -2.06891,-2.56432 -2.0845,-4.75889 -0.1802,-26.10314 2.28167,-25.5742 3.16629,-35.91136 4.14988,-48.503476 1.15577,-14.796373 1.73792,-17.954455 3.77451,-20.477679 1.78559,-2.212256 6.0659,-3.715778 14.06874,-4.940792 1.5614,-0.239017 3.61893,-0.581149 5.82886,-0.959058 0.241,-0.0079 0.45626,-0.04537 0.643259,-0.1086357 7.860762,-1.3528282 17.761702,-3.2021432 18.565644,-3.5123212 1.398834,-0.539697 1.256416,-0.514634 5.718723,-1.012111 1.142379,-0.127363 2.401754,-0.196953 3.509831,-0.207171 z M 34.109201,5.0625311 h 1e-5 c 0.0301,0.360507 0.0315,0.433938 0.0454,0.636672 h -5.5e-4 c -0.0189,-0.04673 -0.0387,-0.09254 -0.0572,-0.139966 0.005,-0.10625 0.009,-0.256525 0.0123,-0.496706 z" />
    <ellipse
       style="fill:none;fill-opacity:1;stroke:#ff0000;stroke-width:0.470195;stroke-miterlimit:4;stroke-dasharray:none;stroke-opacity:1"
       id="path3905"
       cx="141.18073"
       cy="67.331696"
       rx="3.9594986"
       ry="4.0113878" />
    <ellipse
       style="fill:none;fill-opacity:1;stroke:#ff0000;stroke-width:0.470195;stroke-miterlimit:4;stroke-dasharray:none;stroke-opacity:1"
       id="path3905-3"
       cx="140.98643"
       cy="82.70993"
       rx="3.9594986"
       ry="4.0113878" />
    <ellipse
       style="fill:none;fill-opacity:1;stroke:#ff0000;stroke-width:0.470195;stroke-miterlimit:4;stroke-dasharray:none;stroke-opacity:1"
       id="path3905-6"
       cx="222.0062"
       cy="362.60938"
       rx="3.9594986"
       ry="4.0113878" />
    <ellipse
       style="fill:none;fill-opacity:1;stroke:#ff0000;stroke-width:0.470195;stroke-miterlimit:4;stroke-dasharray:none;stroke-opacity:1"
       id="path3905-5"
       cx="237.70096"
       cy="363.10617"
       rx="3.9594986"
       ry="4.0113878" />
    <ellipse
       style="fill:none;fill-opacity:1;stroke:#ff0000;stroke-width:0.470195;stroke-miterlimit:4;stroke-dasharray:none;stroke-opacity:1"
       id="path3905-7-3"
       cx="173.10503"
       cy="340.34674"
       rx="3.9594986"
       ry="4.0113878" />
    <ellipse
       style="fill:none;fill-opacity:1;stroke:#ff0000;stroke-width:0.470195;stroke-miterlimit:4;stroke-dasharray:none;stroke-opacity:1"
       id="path3905-7-5"
       cx="113.43586"
       cy="319.46817"
       rx="3.9594986"
       ry="4.0113878" />
    <ellipse
       style="fill:none;fill-opacity:1;stroke:#ff0000;stroke-width:0.470195;stroke-miterlimit:4;stroke-dasharray:none;stroke-opacity:1"
       id="path3905-7-6"
       cx="188.1857"
       cy="340.60074"
       rx="3.9594986"
       ry="4.0113878" />
    <ellipse
       style="fill:none;fill-opacity:1;stroke:#ff0000;stroke-width:0.470195;stroke-miterlimit:4;stroke-dasharray:none;stroke-opacity:1"
       id="path3905-7-1"
       cx="113.26765"
       cy="334.71017"
       rx="3.9594986"
       ry="4.0113878" />
    <ellipse
       style="fill:none;fill-opacity:1;stroke:#ff0000;stroke-width:0.470195;stroke-miterlimit:4;stroke-dasharray:none;stroke-opacity:1"
       id="path3905-7"
       cx="171.21635"
       cy="362.58258"
       rx="3.9594986"
       ry="4.0113878" />
    <ellipse
       style="fill:none;fill-opacity:1;stroke:#ff0000;stroke-width:0.470195;stroke-miterlimit:4;stroke-dasharray:none;stroke-opacity:1"
       id="path3905-7-2"
       cx="186.99899"
       cy="362.46628"
       rx="3.9594986"
       ry="4.0113878" />
  </g>
</svg>
