<?xml version="1.0" encoding="UTF-8" standalone="no"?>
<svg
   xmlns:dc="http://purl.org/dc/elements/1.1/"
   xmlns:cc="http://creativecommons.org/ns#"
   xmlns:rdf="http://www.w3.org/1999/02/22-rdf-syntax-ns#"
   xmlns:svg="http://www.w3.org/2000/svg"
   xmlns="http://www.w3.org/2000/svg"
   xmlns:sodipodi="http://sodipodi.sourceforge.net/DTD/sodipodi-0.dtd"
   xmlns:inkscape="http://www.inkscape.org/namespaces/inkscape"
   width="600mm"
   height="300mm"
   viewBox="0 0 600 300"
   version="1.1"
   id="svg8"
   inkscape:version="1.0.2 (394de47547, 2021-03-26)"
   sodipodi:docname="caja final para cortar.svg">
  <defs
     id="defs2" />
  <sodipodi:namedview
     id="base"
     pagecolor="#ffffff"
     bordercolor="#666666"
     borderopacity="1.0"
     inkscape:pageopacity="0.0"
     inkscape:pageshadow="2"
     inkscape:zoom="0.33830735"
     inkscape:cx="1038.6042"
     inkscape:cy="441.76432"
     inkscape:document-units="mm"
     inkscape:current-layer="layer1"
     inkscape:document-rotation="0"
     showgrid="false"
     inkscape:window-width="1352"
     inkscape:window-height="1023"
     inkscape:window-x="117"
     inkscape:window-y="27"
     inkscape:window-maximized="0" />
  <metadata
     id="metadata5">
    <rdf:RDF>
      <cc:Work
         rdf:about="">
        <dc:format>image/svg+xml</dc:format>
        <dc:type
           rdf:resource="http://purl.org/dc/dcmitype/StillImage" />
        <dc:title></dc:title>
      </cc:Work>
    </rdf:RDF>
  </metadata>
  <g
     inkscape:label="Capa 1"
     inkscape:groupmode="layer"
     id="layer1">
    <g
       id="g224"
       transform="matrix(0.35277777,0,0,0.35277777,27.12097,30.488385)">
      <path
         d="m 442.203,0 v 112.5 h -8.504 v 69.098 h 8.504 v 69.093 h -8.504 v 69.094 h 8.504 v 69.094 h -8.504 v 69.094 h 8.504 v 69.097 h -8.504 v 69.094 h 8.504 V 708.66 h 27.817 v -8.504 h 69.097 v 8.504 H 566.93 V 596.164 h 8.504 V 527.07 h -8.504 v -69.097 h 8.504 v -69.094 h -8.504 v -69.094 h 8.504 v -69.094 h -8.504 v -69.093 h 8.504 V 112.5 H 566.93 V 0 H 539.117 V 8.504 H 470.02 V 0 Z"
         style="fill:none;stroke:#ff0000;stroke-width:0.283465;stroke-linecap:round;stroke-linejoin:miter;stroke-miterlimit:4;stroke-dasharray:none;stroke-opacity:0.999548"
         id="path226" />
    </g>
    <g
       id="g240"
       transform="matrix(0.35277777,0,0,0.35277777,27.12097,30.488385)">
      <path
         d="m 535.145,581.332 c 0,16.613 -13.829,30.082 -30.887,30.082 -17.063,0 -30.891,-13.469 -30.891,-30.082 0,-16.613 13.828,-30.082 30.891,-30.082 17.058,0 30.887,13.469 30.887,30.082 z"
         style="fill:none;stroke:#ff0000;stroke-width:0.66894;stroke-linecap:round;stroke-linejoin:miter;stroke-miterlimit:4;stroke-dasharray:none;stroke-opacity:0.999548"
         id="path242" />
    </g>
    <g
       id="g244"
       transform="matrix(0.35277777,0,0,0.35277777,27.12097,30.488385)">
      <path
         d="m 480.34,409.863 h 41.848 v 68.75 H 480.34 Z"
         style="fill:none;stroke:#ff0000;stroke-width:0.75075;stroke-linecap:round;stroke-linejoin:miter;stroke-miterlimit:4;stroke-dasharray:none;stroke-opacity:0.999548"
         id="path246" />
    </g>
    <g
       id="g200"
       transform="matrix(0.35277777,0,0,0.35277777,178.50216,-243.33949)">
      <path
         d="m 187.82617,776.20502 v 112.504 h -8.504 v 69.094 h 8.504 v 69.09298 h -8.504 v 69.094 h 8.504 v 69.094 h -8.504 v 69.098 h 8.504 v 69.093 h -8.504 v 69.094 h 8.504 v 112.5 h 27.817 v -8.504 h 69.097 v 8.504 h 27.813 v -112.5 h 8.504 v -69.094 h -8.504 v -69.093 h 8.504 v -69.098 h -8.504 v -69.094 h 8.504 v -69.094 h -8.504 v -69.09298 h 8.504 v -69.094 h -8.504 v -112.504 h -27.813 v 8.504 h -69.097 v -8.504 z"
         style="fill:none;stroke:#ff0000;stroke-width:0.283465;stroke-linecap:round;stroke-linejoin:miter;stroke-miterlimit:4;stroke-dasharray:none;stroke-opacity:0.999548"
         id="path202" />
    </g>
    <g
       id="g208"
       transform="matrix(0.35277777,0,0,0.35277777,235.6726,-216.05437)">
      <path
         d="m 592.441,1292.598 v 27.816 h -8.503 v 69.094 h 8.503 v 27.816 h 100.454 v 8.504 h 69.093 v -8.504 h 69.098 v 8.504 h 69.094 v -8.504 h 100.449 v -27.816 h 8.504 v -69.094 h -8.504 v -27.816 H 900.18 v -8.504 h -69.094 v 8.504 h -69.098 v -8.504 h -69.093 v 8.504 z"
         style="fill:none;stroke:#ff0000;stroke-width:0.283465;stroke-linecap:round;stroke-linejoin:miter;stroke-miterlimit:4;stroke-dasharray:none;stroke-opacity:0.999548"
         id="path210" />
    </g>
    <g
       id="g232"
       transform="matrix(-0.35277777,0,0,-0.35277777,671.57623,625.00568)">
      <path
         d="m 592.441,1142.363 v 27.817 h -8.503 v 69.093 h 8.503 v 27.813 h 100.454 v 8.504 h 69.093 v -8.504 h 69.098 v 8.504 h 69.094 v -8.504 h 100.449 v -27.813 h 8.504 v -69.093 h -8.504 v -27.817 H 900.18 v -8.504 h -69.094 v 8.504 h -69.098 v -8.504 h -69.093 v 8.504 z"
         style="fill:none;stroke:#ff0000;stroke-width:0.283465;stroke-linecap:round;stroke-linejoin:miter;stroke-miterlimit:4;stroke-dasharray:none;stroke-opacity:0.999548"
         id="path234" />
    </g>
    <g
       id="g216"
       transform="matrix(0.35277777,0,0,0.35277777,12.63614,30.587029)">
      <path
         d="m 0,0 v 112.5 h 8.504 v 69.098 H 0 v 69.093 h 8.504 v 69.094 H 0 v 69.094 h 8.504 v 69.094 H 0 v 69.097 h 8.504 v 69.094 H 0 V 708.66 h 108.957 v -8.504 h 69.094 v 8.504 h 69.097 v -8.504 h 69.094 v 8.504 H 425.195 V 596.164 h -8.504 V 527.07 h 8.504 v -69.097 h -8.504 v -69.094 h 8.504 v -69.094 h -8.504 v -69.094 h 8.504 v -69.093 h -8.504 V 112.5 h 8.504 V 0 H 316.242 V 8.504 H 247.148 V 0 H 178.051 V 8.504 H 108.957 V 0 Z"
         style="fill:none;stroke:#ff0000;stroke-width:0.283465;stroke-linecap:round;stroke-linejoin:miter;stroke-miterlimit:4;stroke-dasharray:none;stroke-opacity:0.999548"
         id="path218" />
    </g>
    <g
       id="g248"
       transform="matrix(0.35277777,0,0,0.35277777,12.63614,30.587029)">
      <path
         d="m 74.641,315.199 h 8.504 v 69.137 h -8.504 z"
         style="fill:none;stroke:#ff0000;stroke-width:0.459213;stroke-linecap:round;stroke-linejoin:miter;stroke-miterlimit:4;stroke-dasharray:none;stroke-opacity:1"
         id="path250" />
    </g>
    <g
       id="g252"
       transform="matrix(0.35277777,0,0,0.35277777,12.63614,30.587029)">
      <path
         d="m 74.641,176.922 h 8.504 v 69.141 h -8.504 z"
         style="fill:none;stroke:#ff0000;stroke-width:0.459213;stroke-linecap:round;stroke-linejoin:miter;stroke-miterlimit:4;stroke-dasharray:none;stroke-opacity:1"
         id="path254" />
    </g>
    <g
       id="g256"
       transform="matrix(0.35277777,0,0,0.35277777,12.63614,30.587029)">
      <path
         d="m 74.641,453.473 h 8.504 v 69.137 h -8.504 z"
         style="fill:none;stroke:#ff0000;stroke-width:0.459213;stroke-linecap:round;stroke-linejoin:miter;stroke-miterlimit:4;stroke-dasharray:none;stroke-opacity:1"
         id="path258" />
    </g>
    <g
       id="g260"
       transform="matrix(0.35277777,0,0,0.35277777,12.63614,30.587029)">
      <path
         d="m 349.602,312.199 h 8.504 v 69.137 h -8.504 z"
         style="fill:none;stroke:#ff0000;stroke-width:0.459213;stroke-linecap:round;stroke-linejoin:miter;stroke-miterlimit:4;stroke-dasharray:none;stroke-opacity:1"
         id="path262" />
    </g>
    <g
       id="g264"
       transform="matrix(0.35277777,0,0,0.35277777,12.63614,30.587029)">
      <path
         d="m 349.602,173.922 h 8.504 v 69.141 h -8.504 z"
         style="fill:none;stroke:#ff0000;stroke-width:0.459213;stroke-linecap:round;stroke-linejoin:miter;stroke-miterlimit:4;stroke-dasharray:none;stroke-opacity:1"
         id="path266" />
    </g>
    <g
       id="g268"
       transform="matrix(0.35277777,0,0,0.35277777,12.63614,30.587029)">
      <path
         d="m 349.602,450.473 h 8.504 v 69.137 h -8.504 z"
         style="fill:none;stroke:#ff0000;stroke-width:0.459213;stroke-linecap:round;stroke-linejoin:miter;stroke-miterlimit:4;stroke-dasharray:none;stroke-opacity:1"
         id="path270" />
    </g>
    <g
       id="g272"
       transform="matrix(0.35277777,0,0,0.35277777,12.63614,30.587029)">
      <path
         d="m 181.805,70.801 h 69.137 v 8.504 h -69.137 z"
         style="fill:none;stroke:#ff0000;stroke-width:0.459213;stroke-linecap:round;stroke-linejoin:miter;stroke-miterlimit:4;stroke-dasharray:none;stroke-opacity:1"
         id="path274" />
    </g>
    <g
       id="g276"
       transform="matrix(0.35277777,0,0,0.35277777,12.63614,30.587029)">
      <path
         d="m 181.805,629.227 h 69.137 v 8.504 h -69.137 z"
         style="fill:none;stroke:#ff0000;stroke-width:0.459213;stroke-linecap:round;stroke-linejoin:miter;stroke-miterlimit:4;stroke-dasharray:none;stroke-opacity:1"
         id="path278" />
    </g>
    <g
       id="g280"
       transform="matrix(0,-0.35321313,0.35277777,0,58.64812,161.85756)">
      <path
         d="m 0.688,716.105 v 112.5 h 8.503 v 69.094 H 0.688 v 69.098 h 8.503 v 69.094 H 0.688 v 69.093 h 8.503 v 69.094 H 0.688 v 69.094 h 8.503 v 69.094 H 0.688 v 112.5 h 108.957 v -8.504 h 69.093 v 8.504 h 69.098 v -8.504 h 69.094 v 8.504 h 108.953 v -112.5 h -8.504 v -69.094 h 8.504 v -69.094 h -8.504 v -69.094 h 8.504 v -69.093 h -8.504 v -69.094 h 8.504 v -69.098 h -8.504 v -69.094 h 8.504 v -112.5 H 316.93 v 8.504 h -69.094 v -8.504 h -69.098 v 8.504 h -69.093 v -8.504 z"
         style="fill:none;stroke:#ff0000;stroke-width:0.283465;stroke-linecap:round;stroke-linejoin:miter;stroke-miterlimit:4;stroke-dasharray:none;stroke-opacity:0.999548"
         id="path282" />
    </g>
    <g
       id="g300"
       transform="matrix(0,-0.35277777,0.35277777,0,57.90583,162.14765)">
      <path
         style="fill:none;stroke:#ff0000;stroke-width:0.75px;stroke-linecap:butt;stroke-linejoin:miter;stroke-opacity:1"
         d="m 175.8975,790.94653 v 8.39497 H 77.475124 l -0.03097,102.22606 h -8.490487 v 69.13695 h 8.49052 l 0.03233,66.22539 h -8.504 v 69.141 h 8.504002 l -0.03233,72.0476 h -8.490522 v 69.137 h 8.49052 l 0.03097,102.168 h 98.422373 v 8.453 h 68.99895 v -8.453 h 98.42636 l 0.031,-102.168 h 8.48253 v -69.137 h -8.48253 v -69.14 h 8.48253 v -69.133 h -8.48253 l -0.031,-69.14099 h 8.51347 v -69.13695 h -8.51347 V 799.3415 h -98.4264 v -8.39497 z"
         id="path310" />
    </g>
  </g>
</svg>
