<?xml version="1.0" encoding="UTF-8" standalone="no"?>
<svg
   xmlns:dc="http://purl.org/dc/elements/1.1/"
   xmlns:cc="http://creativecommons.org/ns#"
   xmlns:rdf="http://www.w3.org/1999/02/22-rdf-syntax-ns#"
   xmlns:svg="http://www.w3.org/2000/svg"
   xmlns="http://www.w3.org/2000/svg"
   xmlns:sodipodi="http://sodipodi.sourceforge.net/DTD/sodipodi-0.dtd"
   xmlns:inkscape="http://www.inkscape.org/namespaces/inkscape"
   width="600mm"
   height="300mm"
   viewBox="0 0 600 300"
   version="1.1"
   id="svg8"
   inkscape:version="1.0.2 (394de47547, 2021-03-26)"
   sodipodi:docname="caja final para cortar.svg">
  <defs
     id="defs2" />
  <sodipodi:namedview
     id="base"
     pagecolor="#ffffff"
     bordercolor="#666666"
     borderopacity="1.0"
     inkscape:pageopacity="0.0"
     inkscape:pageshadow="2"
     inkscape:zoom="0.33908686"
     inkscape:cx="1191.4772"
     inkscape:cy="30.081599"
     inkscape:document-units="mm"
     inkscape:current-layer="layer1"
     inkscape:document-rotation="0"
     showgrid="false"
     inkscape:window-width="1853"
     inkscape:window-height="1025"
     inkscape:window-x="67"
     inkscape:window-y="27"
     inkscape:window-maximized="1" />
  <metadata
     id="metadata5">
    <rdf:RDF>
      <cc:Work
         rdf:about="">
        <dc:format>image/svg+xml</dc:format>
        <dc:type
           rdf:resource="http://purl.org/dc/dcmitype/StillImage" />
        <dc:title />
      </cc:Work>
    </rdf:RDF>
  </metadata>
  <g
     inkscape:label="Capa 1"
     inkscape:groupmode="layer"
     id="layer1">
    <g
       id="g40"
       transform="matrix(0.35277777,0,0,0.35277777,24.980102,-222.02051)"
       style="stroke-width:1.00062994;stroke-miterlimit:4;stroke-dasharray:none;stroke:#ff0000;stroke-opacity:1">
      <path
         d="m 442.203,717.164 v 112.504 h -8.504 v 69.094 h 8.504 v 69.093 h -8.504 v 69.094 h 8.504 v 69.094 h -8.504 v 69.098 h 8.504 v 69.093 h -8.504 v 69.094 h 8.504 v 112.5 h 27.817 v -8.504 h 69.097 v 8.504 h 27.813 v -112.5 h 8.504 v -69.094 h -8.504 v -69.093 h 8.504 v -69.098 h -8.504 v -69.094 h 8.504 v -69.094 h -8.504 v -69.093 h 8.504 V 829.668 H 566.93 V 717.164 h -27.813 v 8.504 H 470.02 v -8.504 z"
         style="fill:none;stroke:#ff0000;stroke-width:1.00062994;stroke-linecap:round;stroke-linejoin:miter;stroke-miterlimit:4;stroke-dasharray:none;stroke-opacity:1"
         id="path42" />
    </g>
    <g
       id="g44"
       transform="matrix(0.35277777,0,0,0.35277777,229.19501,-218.40162)"
       style="stroke-width:1.00062994;stroke-miterlimit:4;stroke-dasharray:none;stroke:#ff0000;stroke-opacity:1">
      <path
         d="m 592.441,1292.598 v 27.816 h -8.503 v 69.094 h 8.503 v 27.816 h 100.454 v 8.504 h 69.093 v -8.504 h 69.098 v 8.504 h 69.094 v -8.504 h 100.449 v -27.816 h 8.504 v -69.094 h -8.504 v -27.816 H 900.18 v -8.504 h -69.094 v 8.504 h -69.098 v -8.504 h -69.093 v 8.504 z"
         style="fill:none;stroke:#ff0000;stroke-width:1.00062994;stroke-linecap:round;stroke-linejoin:miter;stroke-miterlimit:4;stroke-dasharray:none;stroke-opacity:1"
         id="path46" />
    </g>
    <g
       id="g48"
       transform="matrix(0.35277777,0,0,0.35277777,12.634283,27.805479)"
       style="stroke-width:1.00062994;stroke-miterlimit:4;stroke-dasharray:none;stroke:#ff0000;stroke-opacity:1">
      <path
         d="m 0,0 v 112.5 h 8.504 v 69.098 H 0 v 69.093 h 8.504 v 69.094 H 0 v 69.094 h 8.504 v 69.094 H 0 v 69.097 h 8.504 v 69.094 H 0 V 708.66 h 108.957 v -8.504 h 69.094 v 8.504 h 69.097 v -8.504 h 69.094 v 8.504 H 425.195 V 596.164 h -8.504 V 527.07 h 8.504 v -69.097 h -8.504 v -69.094 h 8.504 v -69.094 h -8.504 v -69.094 h 8.504 v -69.093 h -8.504 V 112.5 h 8.504 V 0 H 316.242 V 8.504 H 247.148 V 0 H 178.051 V 8.504 H 108.957 V 0 Z"
         style="fill:none;stroke:#ff0000;stroke-width:1.00062994;stroke-linecap:round;stroke-linejoin:miter;stroke-miterlimit:4;stroke-dasharray:none;stroke-opacity:1"
         id="path50" />
    </g>
    <g
       id="g52"
       transform="matrix(0.35277777,0,0,0.35277777,-16.961932,-0.01375324)"
       style="stroke-width:1.00062994;stroke-miterlimit:4;stroke-dasharray:none;stroke:#ff0000;stroke-opacity:1">
      <path
         d="m 750.34,83.836 v 112.5 h -8.504 v 69.098 h 8.504 v 69.093 h -8.504 v 69.094 h 8.504 v 69.094 h -8.504 v 69.094 h 8.504 v 69.097 h -8.504 V 680 h 8.504 v 112.496 h 27.816 v -8.504 h 69.098 v 8.504 h 27.812 V 680 h 8.504 v -69.094 h -8.504 v -69.097 h 8.504 v -69.094 h -8.504 v -69.094 h 8.504 v -69.094 h -8.504 v -69.093 h 8.504 v -69.098 h -8.504 v -112.5 h -27.812 v 8.504 h -69.098 v -8.504 z"
         style="fill:none;stroke:#ff0000;stroke-width:1.00062994;stroke-linecap:round;stroke-linejoin:miter;stroke-miterlimit:4;stroke-dasharray:none;stroke-opacity:1"
         id="path54" />
    </g>
    <g
       id="g56"
       transform="matrix(0.35277777,0,0,0.35277777,104.84006,-219.10579)"
       style="stroke-width:1.00062994;stroke-miterlimit:4;stroke-dasharray:none;stroke:#ff0000;stroke-opacity:1">
      <path
         d="m 592.441,1142.363 v 27.817 h -8.503 v 69.093 h 8.503 v 27.813 h 100.454 v 8.504 h 69.093 v -8.504 h 69.098 v 8.504 h 69.094 v -8.504 h 100.449 v -27.813 h 8.504 v -69.093 h -8.504 v -27.817 H 900.18 v -8.504 h -69.094 v 8.504 h -69.098 v -8.504 h -69.093 v 8.504 z"
         style="fill:none;stroke:#ff0000;stroke-width:1.00062994;stroke-linecap:round;stroke-linejoin:miter;stroke-miterlimit:4;stroke-dasharray:none;stroke-opacity:1"
         id="path58" />
    </g>
    <g
       id="g60"
       transform="matrix(0.24307384,0,0,0.24307384,71.246647,65.872442)"
       style="stroke:#ff0000;stroke-width:1.45223;stroke-miterlimit:4;stroke-dasharray:none;stroke-opacity:1">
      <path
         d="m 843.281,665.168 c 0,16.613 -13.828,30.082 -30.886,30.082 -17.063,0 -30.891,-13.469 -30.891,-30.082 0,-16.613 13.828,-30.082 30.891,-30.082 17.058,0 30.886,13.469 30.886,30.082 z"
         style="fill:none;stroke:#ff0000;stroke-width:1.45223;stroke-linecap:round;stroke-linejoin:miter;stroke-miterlimit:4;stroke-dasharray:none;stroke-opacity:1"
         id="path62" />
    </g>
    <g
       id="g64"
       transform="matrix(0.25533979,0,0,0.23547133,63.09688,57.865149)"
       style="stroke:#ff0000;stroke-width:1.43962;stroke-miterlimit:4;stroke-dasharray:none;stroke-opacity:1">
      <path
         d="m 788.477,493.699 h 41.848 v 68.75 h -41.848 z"
         style="fill:none;stroke:#ff0000;stroke-width:1.43962;stroke-linecap:round;stroke-linejoin:miter;stroke-miterlimit:4;stroke-dasharray:none;stroke-opacity:1"
         id="path66" />
    </g>
    <g
       id="g68"
       transform="matrix(0.35257886,0,0,0.35590232,12.407263,28.206029)"
       style="stroke-width:0.99650885;stroke-miterlimit:4;stroke-dasharray:none;stroke:#ff0000;stroke-opacity:1">
      <path
         d="m 74.641,315.199 h 8.504 v 69.137 h -8.504 z"
         style="fill:none;stroke:#ff0000;stroke-width:0.99650885;stroke-linecap:round;stroke-linejoin:miter;stroke-miterlimit:4;stroke-dasharray:none;stroke-opacity:1"
         id="path70" />
    </g>
    <g
       id="g72"
       transform="matrix(0.35275055,0,0,0.35584108,12.393723,28.730589)"
       style="stroke-width:0.99635204;stroke-miterlimit:4;stroke-dasharray:none;stroke:#ff0000;stroke-opacity:1">
      <path
         d="m 74.641,176.922 h 8.504 v 69.141 h -8.504 z"
         style="fill:none;stroke:#ff0000;stroke-width:0.99635204;stroke-linecap:round;stroke-linejoin:miter;stroke-miterlimit:4;stroke-dasharray:none;stroke-opacity:1"
         id="path74" />
    </g>
    <g
       id="g76"
       transform="matrix(0.352598,0,0,0.35692178,12.405747,27.191689)"
       style="stroke-width:0.99505769;stroke-miterlimit:4;stroke-dasharray:none;stroke:#ff0000;stroke-opacity:1">
      <path
         d="m 74.641,453.473 h 8.504 v 69.137 h -8.504 z"
         style="fill:none;stroke:#ff0000;stroke-width:0.99505769;stroke-linecap:round;stroke-linejoin:miter;stroke-miterlimit:4;stroke-dasharray:none;stroke-opacity:1"
         id="path78" />
    </g>
    <g
       id="g80"
       transform="matrix(0.35277777,0,0,0.35438044,12.391567,29.859579)"
       style="stroke-width:0.99836473;stroke-miterlimit:4;stroke-dasharray:none;stroke:#ff0000;stroke-opacity:1">
      <path
         d="m 349.602,312.199 h 8.504 v 69.137 h -8.504 z"
         style="fill:none;stroke:#ff0000;stroke-width:0.99836473;stroke-linecap:round;stroke-linejoin:miter;stroke-miterlimit:4;stroke-dasharray:none;stroke-opacity:1"
         id="path82" />
    </g>
    <g
       id="g84"
       transform="matrix(0.35296224,0,0,0.35375168,12.326299,30.274479)"
       style="stroke-width:0.99899043;stroke-miterlimit:4;stroke-dasharray:none;stroke:#ff0000;stroke-opacity:1">
      <path
         d="m 349.602,173.922 h 8.504 v 69.141 h -8.504 z"
         style="fill:none;stroke:#ff0000;stroke-width:0.99899043;stroke-linecap:round;stroke-linejoin:miter;stroke-miterlimit:4;stroke-dasharray:none;stroke-opacity:1"
         id="path86" />
    </g>
    <g
       id="g88"
       transform="matrix(0.35277777,0,0,0.35553508,12.391568,29.038009)"
       style="stroke-width:0.99674226;stroke-miterlimit:4;stroke-dasharray:none;stroke:#ff0000;stroke-opacity:1">
      <path
         d="m 349.602,450.473 h 8.504 v 69.137 h -8.504 z"
         style="fill:none;stroke:#ff0000;stroke-width:0.99674226;stroke-linecap:round;stroke-linejoin:miter;stroke-miterlimit:4;stroke-dasharray:none;stroke-opacity:1"
         id="path90" />
    </g>
    <g
       id="g92"
       transform="matrix(0.35277777,0,0,0.35277777,11.271181,25.273559)"
       style="stroke-width:1.00062994;stroke-miterlimit:4;stroke-dasharray:none;stroke:#ff0000;stroke-opacity:1">
      <path
         d="m 181.805,70.801 h 69.137 v 8.504 h -69.137 z"
         style="fill:none;stroke:#ff0000;stroke-width:1.00062994;stroke-linecap:round;stroke-linejoin:miter;stroke-miterlimit:4;stroke-dasharray:none;stroke-opacity:1"
         id="path94" />
    </g>
    <g
       id="g96"
       transform="matrix(0.35277777,0,0,0.35277777,11.333242,25.179069)"
       style="stroke-width:1.00062994;stroke-miterlimit:4;stroke-dasharray:none;stroke:#ff0000;stroke-opacity:1">
      <path
         d="m 181.805,629.227 h 69.137 v 8.504 h -69.137 z"
         style="fill:none;stroke:#ff0000;stroke-width:1.00062994;stroke-linecap:round;stroke-linejoin:miter;stroke-miterlimit:4;stroke-dasharray:none;stroke-opacity:1"
         id="path98" />
    </g>
    <g
       id="g100"
       transform="matrix(0,0.35277777,-0.3523428,0,835.89359,15.145553)"
       style="stroke-width:1.0012474;stroke-miterlimit:4;stroke-dasharray:none;stroke:#ff0000;stroke-opacity:1">
      <path
         d="m 0.164,716.989 v 112.639 h 8.512 v 69.179 H 0.164 v 69.183 h 8.512 v 69.179 H 0.164 v 69.179 h 8.512 v 69.179 H 0.164 v 69.179 h 8.512 v 69.179 H 0.164 v 112.639 h 109.09 v -8.514 h 69.18 v 8.514 h 69.183 v -8.514 h 69.18 v 8.514 h 109.086 v -112.639 h -8.516 v -69.179 h 8.516 v -69.179 h -8.516 v -69.179 h 8.516 v -69.179 h -8.516 V 967.99 h 8.516 v -69.183 h -8.516 v -69.179 h 8.516 V 716.989 H 316.797 v 8.515 h -69.18 v -8.515 h -69.183 v 8.515 h -69.18 v -8.515 z"
         style="fill:none;stroke:#ff0000;stroke-width:1.0012474;stroke-linecap:round;stroke-linejoin:miter;stroke-miterlimit:4;stroke-dasharray:none;stroke-opacity:1"
         id="path102" />
    </g>
    <g
       id="g104"
       transform="matrix(0.35277777,0,0,0.35277777,383.11794,-287.33018)"
       style="stroke-width:1.00062994;stroke-miterlimit:4;stroke-dasharray:none;stroke:#ff0000;stroke-opacity:1">
      <path
         d="m 498.3595,1039.9135 h -8.395 v -98.421 l -102.226,-0.032 v -8.492 h -69.137 v 8.492 l -66.227,0.032 v -8.504 h -69.14 v 8.504 l -72.047,-0.032 v -8.492 h -69.137 v 8.492 l -102.168,0.032 v 98.421 h -8.453 v 68.997 h 8.453 v 98.429 l 102.168,0.031 v 8.481 h 69.137 v -8.481 h 69.137 v 8.481 h 69.136 v -8.481 l 69.141,-0.031 v 8.512 h 69.137 v -8.512 h 102.226 v -98.429 h 8.395 z"
         style="fill:none;stroke:#ff0000;stroke-width:1.00062994;stroke-linecap:butt;stroke-linejoin:miter;stroke-miterlimit:4;stroke-dasharray:none;stroke-opacity:1"
         id="path106" />
    </g>
  </g>
</svg>
